<?xml version="1.0" encoding="UTF-8"?>
<svg width="194px" height="187px" viewBox="0 0 194 187" version="1.1" xmlns="http://www.w3.org/2000/svg" xmlns:xlink="http://www.w3.org/1999/xlink">
    <!-- Generator: Sketch 52.6 (67491) - http://www.bohemiancoding.com/sketch -->
    <title>A4 Copy</title>
    <desc>Created with Sketch.</desc>
    <defs>
        <circle id="path-1" cx="199.5" cy="290.5" r="77.5"></circle>
        <filter x="-2.3%" y="-1.6%" width="104.5%" height="104.5%" filterUnits="objectBoundingBox" id="filter-2">
            <feMorphology radius="1.5" operator="dilate" in="SourceAlpha" result="shadowSpreadOuter1"></feMorphology>
            <feOffset dx="0" dy="1" in="shadowSpreadOuter1" result="shadowOffsetOuter1"></feOffset>
            <feGaussianBlur stdDeviation="0.5" in="shadowOffsetOuter1" result="shadowBlurOuter1"></feGaussianBlur>
            <feComposite in="shadowBlurOuter1" in2="SourceAlpha" operator="out" result="shadowBlurOuter1"></feComposite>
            <feColorMatrix values="0 0 0 0 0   0 0 0 0 0   0 0 0 0 0  0 0 0 0.5 0" type="matrix" in="shadowBlurOuter1"></feColorMatrix>
        </filter>
    </defs>
    <g id="Page-1" stroke="none" stroke-width="1" fill="none" fill-rule="evenodd">
        <g id="A4-Copy" transform="translate(-105.000000, -200.000000)">
            <g id="Oval-Copy-2">
                <use fill="black" fill-opacity="1" filter="url(#filter-2)" xlink:href="#path-1"></use>
                <use stroke="#FCF68D" stroke-width="3" fill="#FCF68D" fill-rule="evenodd" xlink:href="#path-1"></use>
            </g>
            <g id="Group-3" transform="translate(167.000000, 259.000000)" fill="#245D7F">
                <path d="M25.3967479,40.7486274 L13.8155804,52.321615 C11.6974096,54.4435587 11.3948138,57.0939242 12.4676536,58.1480156 C12.9353017,58.6351544 13.6230194,58.7369857 14.1181762,58.7369857 C15.4936118,58.7369857 17.0340997,58.0021492 18.2719917,56.7746694 L29.8531592,45.1989297 L25.3967479,40.7486274 Z M14.1181762,64.2413793 C11.944988,64.2413793 9.99186953,63.4597554 8.56141654,62.0368697 C5.15033632,58.6131369 5.72801926,52.6326132 9.93685211,48.4327609 L23.4436294,34.9084658 C24.5164692,33.8351091 26.2770267,33.8351091 27.3498664,34.9084658 L35.685006,43.2531265 C36.2076715,43.7677873 36.4827586,44.4668453 36.4827586,45.1989297 C36.4827586,45.9282618 36.2076715,46.6273198 35.685006,47.1447328 L22.1782287,60.6635235 C19.8950056,62.936838 16.9790822,64.2413793 14.1181762,64.2413793 Z" id="Fill-2785"></path>
                <path d="M60.7714298,8.15678504 L58.1492132,10.7880244 C57.6848624,11.2393285 57.6848624,11.977826 58.1492132,12.4318653 C58.7228231,13.0144578 59.1871739,13.0253985 59.7880986,12.4318653 L62.4103151,9.80062588 L60.7714298,8.15678504 Z M58.9686559,18.2413793 C57.1931968,18.2413793 55.5269966,17.5493798 54.2705179,16.2966691 C51.7029308,13.7037222 51.7029308,9.49702133 54.2705179,6.91775027 L58.8320821,2.35547654 C59.8427281,1.33252068 61.6728167,1.32705033 62.6834627,2.35547654 L68.2010434,7.86685638 C69.2663189,8.93631023 69.2663189,10.6676767 68.2010434,11.7343954 L63.6394792,16.2994043 C62.3830004,17.5521149 60.744115,18.2413793 58.9686559,18.2413793 Z" id="Fill-2786"></path>
                <path d="M41.6165315,31.7241379 C40.9296331,31.7241379 40.2152588,31.4573192 39.6657401,30.9181802 C38.5941786,29.8454037 38.5941786,28.104205 39.6657401,27.0286778 L54.7775047,11.9080306 C55.8765421,10.8352542 57.607526,10.8352542 58.6790875,11.9080306 C59.750649,12.9835578 59.750649,14.7247566 58.6790875,15.7975331 L43.5673229,30.9181802 C43.0178042,31.4573192 42.3309058,31.7241379 41.6165315,31.7241379" id="Fill-2787"></path>
                <path d="M21.7637578,30.0546432 C22.4753573,30.0546432 23.1869568,30.3364738 23.7069719,30.8563557 L50.9393383,58.0790109 C52.827814,59.9861564 56.1668579,59.9888926 58.0827028,58.0762747 C59.0406252,57.1185976 59.5606403,55.8489914 59.5606403,54.4972986 C59.5606403,53.1456058 59.0406252,51.8759996 58.0827028,50.9183225 L30.8503363,23.6984035 C30.166106,23.0170847 29.8924139,22.026573 30.1387368,21.0935219 C31.2335053,16.7511403 30.0292599,12.2801565 26.8818005,9.13623939 C24.5827867,6.83507817 21.5448041,5.54084599 18.2878678,5.47517671 L23.07748,10.2608259 C23.7617103,10.9530896 24.0354024,11.9572825 23.7890795,12.9040147 L21.9006038,19.9552542 C21.6542809,20.8992502 20.887943,21.6380297 19.9573897,21.889762 L12.8961329,23.7750177 C11.9382105,24.0349586 10.9529188,23.7613366 10.2686885,23.0690729 L5.47907632,18.2888961 C5.56118396,21.4601754 6.82016773,24.5548405 9.1465508,26.8669466 C12.2392718,29.9670841 16.8372995,31.2120643 21.0795275,30.139466 C21.3258504,30.0820054 21.5448041,30.0546432 21.7637578,30.0546432 Z M54.4973359,65.0344828 C51.7056763,65.0344828 49.0508626,63.9372584 47.0529101,61.9480263 L20.8605738,35.767871 C15.1677776,36.6762962 9.33813529,34.8101939 5.26012262,30.735962 C0.278925942,25.766986 -1.3358576,18.2916323 1.15474074,11.6891329 C1.45580208,10.8162786 2.22214003,10.1705306 3.12532404,9.97352279 C4.02850806,9.78198737 4.9864305,10.0528732 5.6432916,10.7123023 L13.0056098,18.0809434 L17.0015148,17.0138175 L18.0962833,13.0134635 L10.7065959,5.64208614 C10.0497348,4.98265706 9.77604269,4.03592486 9.96762717,3.12749974 C10.1592117,2.2163384 10.8160728,1.46935027 11.6918876,1.14374006 C13.7172093,0.385807054 15.8520079,0 18.0141757,0 C22.8311571,0 27.3470771,1.87157465 30.7408595,5.26722397 C34.8188721,9.34145591 36.6799786,15.1997035 35.7767946,20.8691518 L61.969131,47.0493071 C63.9397143,49.0385392 65.0344828,51.6844642 65.0344828,54.4972986 C65.0344828,57.310133 63.9397143,59.956058 61.969131,61.9452901 C59.9711784,63.9345222 57.3163648,65.0344828 54.4973359,65.0344828 Z" id="Fill-2788"></path>
            </g>
        </g>
    </g>
</svg>