<?xml version="1.0" encoding="UTF-8"?>
<svg width="155px" height="159px" viewBox="0 0 155 159" version="1.1" xmlns="http://www.w3.org/2000/svg" xmlns:xlink="http://www.w3.org/1999/xlink">
    <!-- Generator: Sketch 52.6 (67491) - http://www.bohemiancoding.com/sketch -->
    <title>A4 Copy</title>
    <desc>Created with Sketch.</desc>
    <defs>
        <circle id="path-1" cx="199" cy="289" r="50"></circle>
        <filter x="-3.5%" y="-2.5%" width="107.0%" height="107.0%" filterUnits="objectBoundingBox" id="filter-2">
            <feMorphology radius="1.5" operator="dilate" in="SourceAlpha" result="shadowSpreadOuter1"></feMorphology>
            <feOffset dx="0" dy="1" in="shadowSpreadOuter1" result="shadowOffsetOuter1"></feOffset>
            <feGaussianBlur stdDeviation="0.5" in="shadowOffsetOuter1" result="shadowBlurOuter1"></feGaussianBlur>
            <feComposite in="shadowBlurOuter1" in2="SourceAlpha" operator="out" result="shadowBlurOuter1"></feComposite>
            <feColorMatrix values="0 0 0 0 0   0 0 0 0 0   0 0 0 0 0  0 0 0 0.5 0" type="matrix" in="shadowBlurOuter1"></feColorMatrix>
        </filter>
    </defs>
    <g id="Page-1" stroke="none" stroke-width="1" fill="none" fill-rule="evenodd">
        <g id="A4-Copy" transform="translate(-122.000000, -211.000000)">
            <g id="Oval-Copy-2">
                <use fill="black" fill-opacity="1" filter="url(#filter-2)" xlink:href="#path-1"></use>
                <use stroke="#FCF68D" stroke-width="3" fill="#245D7F" fill-rule="evenodd" xlink:href="#path-1"></use>
            </g>
            <g id="Group-3" transform="translate(177.000000, 269.000000)" fill="#FCF68D">
                <path d="M16.4395371,26.2023077 L8.99107561,33.6419231 C7.62876792,35.006 7.43415253,36.7097692 8.12415253,37.3873846 C8.42492176,37.7005385 8.86722946,37.766 9.18569099,37.766 C10.0703064,37.766 11.0610756,37.2936154 11.8572295,36.5045385 L19.305691,29.0631538 L16.4395371,26.2023077 Z M9.18569099,41.3044615 C7.78799869,41.3044615 6.53184484,40.802 5.61184484,39.8873077 C3.41799869,37.6863846 3.78953715,33.8418462 6.49646022,31.142 L15.1833833,22.448 C15.8733833,21.758 17.005691,21.758 17.695691,22.448 L23.0564602,27.8123077 C23.3926141,28.1431538 23.5695371,28.5925385 23.5695371,29.0631538 C23.5695371,29.532 23.3926141,29.9813846 23.0564602,30.314 L14.3695371,39.0044615 C12.9010756,40.4658462 11.025691,41.3044615 9.18569099,41.3044615 Z" id="Fill-2785"></path>
                <path d="M39.4041525,5.03876923 L37.705691,6.74076923 C37.4049218,7.03269231 37.4049218,7.51038462 37.705691,7.80407692 C38.0772295,8.18092308 38.3779987,8.188 38.7672295,7.80407692 L40.465691,6.10207692 L39.4041525,5.03876923 Z M38.2364602,11.5619231 C37.0864602,11.5619231 36.0072295,11.1143077 35.1933833,10.304 C33.5303064,8.62676923 33.5303064,5.90569231 35.1933833,4.23730769 L38.1479987,1.28623077 C38.8026141,0.624538462 39.9879987,0.621 40.6426141,1.28623077 L44.2164602,4.85123077 C44.9064602,5.543 44.9064602,6.66292308 44.2164602,7.35292308 L41.2618448,10.3057692 C40.4479987,11.1160769 39.3864602,11.5619231 38.2364602,11.5619231 Z" id="Fill-2786"></path>
                <path d="M26.7187679,20.5478462 C26.2764602,20.5478462 25.8164602,20.3762308 25.4626141,20.0294615 C24.7726141,19.3394615 24.7726141,18.2195385 25.4626141,17.5277692 L35.1933833,7.80230769 C35.9010756,7.11230769 37.015691,7.11230769 37.705691,7.80230769 C38.395691,8.49407692 38.395691,9.614 37.705691,10.304 L27.9749218,20.0294615 C27.6210756,20.3762308 27.1787679,20.5478462 26.7187679,20.5478462" id="Fill-2787"></path>
                <path d="M14.0687679,19.4332308 C14.5287679,19.4332308 14.9887679,19.6154615 15.3249218,19.9516154 L32.9287679,37.5536923 C34.1495371,38.7868462 36.3079987,38.7886154 37.5464602,37.5519231 C38.165691,36.9326923 38.5018448,36.1117692 38.5018448,35.2377692 C38.5018448,34.3637692 38.165691,33.5428462 37.5464602,32.9236154 L19.9426141,15.3233077 C19.5003064,14.8827692 19.3233833,14.2423077 19.4826141,13.639 C20.1903064,10.8312308 19.4118448,7.94030769 17.3772295,5.90746154 C15.8910756,4.41953846 13.9272295,3.58269231 11.8218448,3.54023077 L14.9179987,6.63461538 C15.3603064,7.08223077 15.5372295,7.73153846 15.3779987,8.34369231 L14.1572295,12.903 C13.9979987,13.5133846 13.5026141,13.9910769 12.9010756,14.1538462 L8.33646022,15.3728462 C7.71722946,15.5409231 7.08030638,15.364 6.63799869,14.9163846 L3.54184484,11.8255385 C3.59492176,13.8760769 4.40876792,15.8770769 5.91261407,17.3720769 C7.91184484,19.3766154 10.8841525,20.1816154 13.6264602,19.4880769 C13.785691,19.4509231 13.9272295,19.4332308 14.0687679,19.4332308 Z M35.2287679,42.0510769 C33.4241525,42.0510769 31.7079987,41.3416154 30.4164602,40.0553846 L13.4849218,23.1273846 C9.80492176,23.7147692 6.03646022,22.5081538 3.40030638,19.8737692 C0.180306379,16.6608462 -0.863539775,11.8273077 0.746460225,7.55815385 C0.941075609,6.99376923 1.43646022,6.57623077 2.02030638,6.44884615 C2.60415253,6.325 3.2233833,6.50015385 3.64799869,6.92653846 L8.40722946,11.6910769 L10.9903064,11.0010769 L11.6979987,8.41446154 L6.92107561,3.64815385 C6.49646022,3.22176923 6.31953715,2.60961538 6.4433833,2.02223077 C6.56722946,1.43307692 6.99184484,0.950076923 7.55799869,0.739538462 C8.86722946,0.249461538 10.2472295,0 11.6449218,0 C14.7587679,0 17.6779987,1.21015385 19.8718448,3.40576923 C22.5079987,6.04015385 23.7110756,9.82807692 23.1272295,13.4939231 L40.0587679,30.4219231 C41.3326141,31.7081538 42.0403064,33.419 42.0403064,35.2377692 C42.0403064,37.0565385 41.3326141,38.7673846 40.0587679,40.0536154 C38.7672295,41.3398462 37.0510756,42.0510769 35.2287679,42.0510769 Z" id="Fill-2788"></path>
            </g>
        </g>
    </g>
</svg>