<?xml version="1.0" encoding="UTF-8"?>
<svg width="223px" height="185px" viewBox="0 0 223 185" version="1.1" xmlns="http://www.w3.org/2000/svg" xmlns:xlink="http://www.w3.org/1999/xlink">
    <!-- Generator: Sketch 52.6 (67491) - http://www.bohemiancoding.com/sketch -->
    <title>A4</title>
    <desc>Created with Sketch.</desc>
    <defs>
        <circle id="path-1" cx="283" cy="293" r="75"></circle>
        <filter x="-6.7%" y="-5.3%" width="112.0%" height="112.0%" filterUnits="objectBoundingBox" id="filter-2">
            <feMorphology radius="1" operator="dilate" in="SourceAlpha" result="shadowSpreadOuter1"></feMorphology>
            <feOffset dx="-1" dy="1" in="shadowSpreadOuter1" result="shadowOffsetOuter1"></feOffset>
            <feGaussianBlur stdDeviation="2.5" in="shadowOffsetOuter1" result="shadowBlurOuter1"></feGaussianBlur>
            <feComposite in="shadowBlurOuter1" in2="SourceAlpha" operator="out" result="shadowBlurOuter1"></feComposite>
            <feColorMatrix values="0 0 0 0 0   0 0 0 0 0   0 0 0 0 0  0 0 0 0.5 0" type="matrix" in="shadowBlurOuter1"></feColorMatrix>
        </filter>
    </defs>
    <g id="Page-1" stroke="none" stroke-width="1" fill="none" fill-rule="evenodd">
        <g id="A4" transform="translate(-172.000000, -201.000000)">
            <g id="Oval-Copy-3">
                <use fill="black" fill-opacity="1" filter="url(#filter-2)" xlink:href="#path-1"></use>
                <use stroke="#FFFFFF" stroke-width="2" fill="#245D7F" fill-rule="evenodd" xlink:href="#path-1"></use>
            </g>
            <g id="FRIENDLY-ICON" transform="translate(243.000000, 255.000000)" fill="#FEF9A1">
                <path d="M27.2393341,7.01185442 C22.6815125,7.01185442 18.9703451,11.4994412 18.9703451,17.003747 C18.9703451,22.5431119 22.6815125,27.0306988 27.2393341,27.0306988 C31.793628,27.0306988 35.4977401,22.5431119 35.4977401,17.003747 C35.4977401,11.4994412 31.793628,7.01185442 27.2393341,7.01185442 Z M27.2393341,34.0425532 C18.7869033,34.0425532 11.9148936,26.3996319 11.9148936,17.003747 C11.9148936,7.64292131 18.7869033,0 27.2393341,0 C35.6847095,0 42.5531915,7.64292131 42.5531915,17.003747 C42.5531915,26.3996319 35.6847095,34.0425532 27.2393341,34.0425532 Z" id="Fill-898"></path>
                <path d="M7.5911375,62.933319 L45.1786684,62.933319 L45.926594,51.8985157 C46.0836926,49.6709933 44.0414117,46.2097662 41.2648659,45.1816789 C31.7296682,41.7547214 21.0674592,41.7204518 11.4776185,45.1816789 C8.74547018,46.2097662 6.69294373,49.6709933 6.8397967,51.8985157 L7.5911375,62.933319 Z M48.3684516,69.787234 L4.39793912,69.787234 C2.60496676,69.787234 1.11253072,68.3821815 0.989584049,66.565894 L0.0230865703,52.3440202 C-0.345753457,46.8608881 3.74905388,40.7266342 9.14504687,38.7389988 C20.288797,34.7294585 32.5254064,34.763728 43.5974376,38.7389988 C49.0412432,40.7266342 53.1326353,46.8608881 52.739889,52.3440202 L51.7768067,66.565894 C51.65386,68.3821815 50.1648392,69.787234 48.3684516,69.787234 Z" id="Fill-900"></path>
                <path d="M75.7895364,69.787234 L58.5260806,69.787234 C56.6674055,69.787234 55.1589155,68.2293839 55.1589155,66.3253449 C55.1589155,64.3866869 56.6674055,62.8634557 58.5260806,62.8634557 L72.6479713,62.8634557 L73.2574282,53.6548305 C73.375279,51.889267 71.7017979,49.0851367 69.5804838,48.2889022 C65.812626,46.9041465 61.8326368,46.1425309 57.77857,46.0732931 C55.9198948,46.0386742 54.434975,44.4808241 54.4686466,42.5421662 C54.5023183,40.6381271 55.9603008,39.1148959 57.8964208,39.1495148 C62.6845296,39.2533715 67.3884593,40.1188437 71.8802576,41.7805506 C76.6953038,43.5807329 80.3150063,49.1197556 79.9782898,54.1394949 L79.1499672,66.5330582 C79.0287492,68.3678595 77.5606652,69.787234 75.7895364,69.787234" id="Fill-901"></path>
                <path d="M61.2815513,17.0127766 C58.3511449,17.0127766 55.9691573,20.0727814 55.9691573,23.8467873 C55.9691573,27.5867931 58.3511449,30.6467979 61.2815513,30.6467979 C64.208654,30.6467979 66.5840341,27.5867931 66.5840341,23.8467873 C66.5840341,20.0727814 64.208654,17.0127766 61.2815513,17.0127766 Z M61.2815513,37.4468085 C54.7104371,37.4468085 49.3617021,31.360799 49.3617021,23.8467873 C49.3617021,16.3327755 54.7104371,10.212766 61.2815513,10.212766 C67.8493618,10.212766 73.1914894,16.3327755 73.1914894,23.8467873 C73.1914894,31.360799 67.8493618,37.4468085 61.2815513,37.4468085 Z" id="Fill-902"></path>
            </g>
        </g>
    </g>
</svg>