<?xml version="1.0" encoding="UTF-8"?>
<svg width="223px" height="185px" viewBox="0 0 223 185" version="1.1" xmlns="http://www.w3.org/2000/svg" xmlns:xlink="http://www.w3.org/1999/xlink">
    <!-- Generator: Sketch 52.6 (67491) - http://www.bohemiancoding.com/sketch -->
    <title>A4</title>
    <desc>Created with Sketch.</desc>
    <g id="Page-1" stroke="none" stroke-width="1" fill="none" fill-rule="evenodd">
        <g id="A4" transform="translate(-172.000000, -201.000000)" fill="#245D7F">
            <path d="M260.96062,274.782946 L281.062016,274.782946 L281.062016,251.466534 C278.347594,251.592833 275.700518,251.980193 273.14537,252.603998 C267.739695,257.019252 263.381419,264.949093 260.96062,274.782946 Z M260.066377,278.98672 C259.291722,283.277283 258.872521,287.857626 258.872521,292.612403 C258.872521,297.654719 259.343956,302.500866 260.210802,307.01328 L281.062016,307.01328 L281.062016,278.98672 L260.066377,278.98672 Z M261.156476,311.217054 C263.84042,321.571974 268.691123,329.723247 274.636466,333.730908 C276.725873,334.15974 278.872026,334.431568 281.062015,334.533465 L281.062016,311.217054 L261.156476,311.217054 Z M305.03938,274.782946 C302.616066,264.938879 298.251249,257.002781 292.837783,252.590251 C290.383554,251.994452 287.844296,251.616941 285.241663,251.479531 L285.241662,274.782946 L305.03938,274.782946 Z M305.933623,278.98672 L285.241662,278.98672 L285.241662,307.01328 L305.789198,307.01328 C306.656044,302.500866 307.127479,297.654719 307.127479,292.612403 C307.127479,287.857626 306.708278,283.277283 305.933623,278.98672 Z M304.843524,311.217054 L285.241662,311.217054 L285.241662,334.520468 C287.320537,334.410712 289.358976,334.147766 291.345946,333.742749 C297.299311,329.739318 302.156934,321.582182 304.843524,311.217054 Z M245.628622,274.782946 L256.725863,274.782946 C258.511699,267.223306 261.397455,260.606171 265.043567,255.505476 C256.606095,259.562171 249.741258,266.381759 245.628622,274.782946 Z M243.851116,278.98672 C242.278221,283.366986 241.421053,288.085296 241.421053,293 C241.421053,297.914704 242.278221,302.633014 243.851116,307.01328 L256.003808,307.01328 C255.160424,302.465117 254.705426,297.627323 254.705426,292.612403 C254.705426,287.88158 255.110462,283.308164 255.864586,278.98672 L243.851116,278.98672 Z M245.628622,311.217054 C249.883692,319.909201 257.084899,326.9083 265.925827,330.906022 C261.991348,325.831014 258.857936,319.049803 256.913216,311.217054 L245.628622,311.217054 Z M320.379679,311.217054 L309.086784,311.217054 C307.138972,319.062254 303.998687,325.85257 300.055404,330.930212 C308.91344,326.93657 316.123745,319.926759 320.379679,311.217054 Z M322.153859,307.01328 C323.723713,302.633014 324.578947,297.914704 324.578947,293 C324.578947,288.085296 323.723713,283.366986 322.153859,278.98672 L310.135414,278.98672 C310.889538,283.308164 311.294574,287.88158 311.294574,292.612403 C311.294574,297.627323 310.839576,302.465117 309.996192,307.01328 L322.153859,307.01328 Z M320.379679,274.782946 C316.266088,266.364544 309.392443,259.534229 300.938616,255.480572 C304.593144,260.584624 307.485394,267.210997 309.274137,274.782946 L320.379679,274.782946 Z M283.021053,343 C255.442105,343 233,320.570526 233,293 C233,265.429474 255.442105,243 283.021053,243 C310.6,243 333,265.429474 333,293 C333,320.570526 310.6,343 283.021053,343 Z" id="Combined-Shape"></path>
        </g>
    </g>
</svg>