<?xml version="1.0" encoding="UTF-8"?>
<svg width="223px" height="185px" viewBox="0 0 223 185" version="1.1" xmlns="http://www.w3.org/2000/svg" xmlns:xlink="http://www.w3.org/1999/xlink">
    <!-- Generator: Sketch 52.6 (67491) - http://www.bohemiancoding.com/sketch -->
    <title>A4</title>
    <desc>Created with Sketch.</desc>
    <defs>
        <circle id="path-1" cx="281" cy="297" r="75"></circle>
        <filter x="-6.7%" y="-5.3%" width="112.0%" height="112.0%" filterUnits="objectBoundingBox" id="filter-2">
            <feMorphology radius="1" operator="dilate" in="SourceAlpha" result="shadowSpreadOuter1"></feMorphology>
            <feOffset dx="-1" dy="1" in="shadowSpreadOuter1" result="shadowOffsetOuter1"></feOffset>
            <feGaussianBlur stdDeviation="2.5" in="shadowOffsetOuter1" result="shadowBlurOuter1"></feGaussianBlur>
            <feComposite in="shadowBlurOuter1" in2="SourceAlpha" operator="out" result="shadowBlurOuter1"></feComposite>
            <feColorMatrix values="0 0 0 0 0   0 0 0 0 0   0 0 0 0 0  0 0 0 0.5 0" type="matrix" in="shadowBlurOuter1"></feColorMatrix>
        </filter>
    </defs>
    <g id="Page-1" stroke="none" stroke-width="1" fill="none" fill-rule="evenodd">
        <g id="A4" transform="translate(-172.000000, -201.000000)">
            <g id="Oval">
                <use fill="black" fill-opacity="1" filter="url(#filter-2)" xlink:href="#path-1"></use>
                <use stroke="#FFFFFF" stroke-width="2" fill="#245D7F" fill-rule="evenodd" xlink:href="#path-1"></use>
            </g>
            <g id="Group-13" transform="translate(253.000000, 253.000000)" fill="#FEF9A1">
                <path d="M19.2733333,60.3185773 L37.7466667,60.3185773 C37.9166667,57.4474934 38.55,53.4876087 40.5866667,50.7505311 C49.4,39.3398991 49.8066667,28.5590964 49.8066667,28.4518914 C49.8066667,16.649291 40.24,7.03769286 28.4833333,7.03769286 C16.7266667,7.03769286 7.16333333,16.649291 7.16333333,28.465292 C7.16333333,28.5590964 7.57666667,39.3532997 16.34,50.7002788 C18.4133333,53.4641577 19.08,57.4441432 19.2733333,60.3185773 Z M41.0733333,67.0188897 L15.9833333,67.0188897 C15.0666667,67.0188897 14.19,66.6369719 13.56,65.9669406 C12.93,65.2935592 12.6033333,64.3923672 12.6566667,63.4677241 C12.79,61.1192646 12.47,56.6769575 11.0433333,54.7707186 C0.616666667,41.269589 0.496666667,28.5925979 0.496666667,28.465292 C0.496666667,12.9540687 13.05,0.337380437 28.4833333,0.337380437 C43.9166667,0.337380437 56.4733333,12.9540687 56.4733333,28.465292 C56.4733333,28.5925979 56.35,41.269589 45.89,54.8109205 C44.4466667,56.7506609 44.26,61.4609805 44.4,63.4308724 C44.4666667,64.3555155 44.1433333,65.2734583 43.5166667,65.95354 C42.8833333,66.6336217 42,67.0188897 41.0733333,67.0188897 Z" id="Fill-2060"></path>
                <path d="M41.5433333,74.4863879 L15.4233333,74.4863879 C13.58,74.4863879 12.09,72.9855179 12.09,71.1362317 C12.09,69.2835953 13.58,67.7860755 15.4233333,67.7860755 L41.5433333,67.7860755 C43.3866667,67.7860755 44.8766667,69.2835953 44.8766667,71.1362317 C44.8766667,72.9855179 43.3866667,74.4863879 41.5433333,74.4863879" id="Fill-2061"></path>
                <path d="M38.3866667,81.8399808 L18.58,81.8399808 C16.74,81.8399808 15.2466667,80.3424609 15.2466667,78.4898246 C15.2466667,76.6371882 16.74,75.1396683 18.58,75.1396683 L38.3866667,75.1396683 C40.23,75.1396683 41.72,76.6371882 41.72,78.4898246 C41.72,80.3424609 40.23,81.8399808 38.3866667,81.8399808" id="Fill-2062"></path>
                <polyline id="Fill-2063" points="22.5133333 63.2231627 18.2933333 28.2240807 21.6033333 27.8187118 25.82 62.8177938 22.5133333 63.2231627"></polyline>
                <polyline id="Fill-2064" points="34.4533333 63.2231627 31.1466667 62.8177938 35.3666667 27.8187118 38.6733333 28.2240807 34.4533333 63.2231627"></polyline>
                <path d="M34.41,36.6229224 C33.39,36.6229224 32.7566667,36.0265946 32.3533333,35.4168661 C31.95,36.0265946 31.32,36.6229224 30.3,36.6229224 C29.2866667,36.6229224 28.6566667,36.036645 28.2533333,35.4302668 C27.8533333,36.036645 27.2233333,36.6229224 26.21,36.6229224 C25.2033333,36.6229224 24.5766667,36.0399952 24.1733333,35.4369671 C23.77,36.0399952 23.1466667,36.6229224 22.1366667,36.6229224 C20.54,36.6229224 19.9,35.1689546 19.59,34.4721221 C19.52,34.3113146 19.41,34.0701033 19.36,33.9963999 C19.4333333,34.1002547 19.71,34.3113146 20.0933333,34.3113146 L20.0933333,30.9611584 C21.1,30.9611584 21.73,31.5440856 22.1333333,32.1504638 C22.5366667,31.5440856 23.16,30.9611584 24.17,30.9611584 C25.18,30.9611584 25.8066667,31.5440856 26.21,32.1504638 C26.6133333,31.5440856 27.24,30.9611584 28.25,30.9611584 C29.2666667,30.9611584 29.8966667,31.554136 30.3,32.1638645 C30.7033333,31.554136 31.3366667,30.9611584 32.3533333,30.9611584 C33.3766667,30.9611584 34.0066667,31.5574862 34.41,32.1705648 C34.8166667,31.5574862 35.45,30.9611584 36.4733333,30.9611584 L36.4733333,34.3113146 C36.85,34.3113146 37.12,34.1036049 37.1933333,34.0031002 C37.14,34.0768037 37.0333333,34.3180149 36.96,34.4788224 C36.65,35.1756549 36.0033333,36.6229224 34.41,36.6229224" id="Fill-2065"></path>
            </g>
        </g>
    </g>
</svg>