<?xml version="1.0" encoding="UTF-8"?>
<svg width="194px" height="187px" viewBox="0 0 194 187" version="1.1" xmlns="http://www.w3.org/2000/svg" xmlns:xlink="http://www.w3.org/1999/xlink">
    <!-- Generator: Sketch 52.6 (67491) - http://www.bohemiancoding.com/sketch -->
    <title>A4 Copy</title>
    <desc>Created with Sketch.</desc>
    <defs>
        <circle id="path-1" cx="451.5" cy="291.5" r="77.5"></circle>
        <filter x="-2.3%" y="-1.6%" width="104.5%" height="104.5%" filterUnits="objectBoundingBox" id="filter-2">
            <feMorphology radius="1.5" operator="dilate" in="SourceAlpha" result="shadowSpreadOuter1"></feMorphology>
            <feOffset dx="0" dy="1" in="shadowSpreadOuter1" result="shadowOffsetOuter1"></feOffset>
            <feGaussianBlur stdDeviation="0.5" in="shadowOffsetOuter1" result="shadowBlurOuter1"></feGaussianBlur>
            <feComposite in="shadowBlurOuter1" in2="SourceAlpha" operator="out" result="shadowBlurOuter1"></feComposite>
            <feColorMatrix values="0 0 0 0 0   0 0 0 0 0   0 0 0 0 0  0 0 0 0.5 0" type="matrix" in="shadowBlurOuter1"></feColorMatrix>
        </filter>
    </defs>
    <g id="Page-1" stroke="none" stroke-width="1" fill="none" fill-rule="evenodd">
        <g id="A4-Copy" transform="translate(-355.000000, -200.000000)">
            <g id="Oval-Copy">
                <use fill="black" fill-opacity="1" filter="url(#filter-2)" xlink:href="#path-1"></use>
                <use stroke="#FCF68D" stroke-width="3" fill="#FCF68D" fill-rule="evenodd" xlink:href="#path-1"></use>
            </g>
            <g id="Group-2" transform="translate(452.299546, 290.907190) rotate(8.000000) translate(-452.299546, -290.907190) translate(432.799546, 255.641233)" fill="#245D7F">
                <path d="M5.78635015,64.6980096 L33.2136499,64.6980096 L33.2136499,5.83390528 L5.78635015,5.83390528 L5.78635015,64.6980096 Z M0,70.5319149 L39,70.5319149 L39,0 L0,0 L0,70.5319149 Z M17.2143917,57.1722718 L21.2648368,57.1722718 L21.2648368,61.2560055 L17.2143917,61.2560055 L17.2143917,57.1722718 Z" id="Fill-3459"></path>
                <polygon id="Fill-3460" points="3.31914894 53.9361702 36.5106383 53.9361702 36.5106383 52.2765957 3.31914894 52.2765957"></polygon>
                <polygon id="Fill-3462" points="3.31914894 11.6170213 36.5106383 11.6170213 36.5106383 9.95744681 3.31914894 9.95744681"></polygon>
            </g>
        </g>
    </g>
</svg>