<?xml version="1.0" encoding="UTF-8"?>
<svg width="155px" height="159px" viewBox="0 0 155 159" version="1.1" xmlns="http://www.w3.org/2000/svg" xmlns:xlink="http://www.w3.org/1999/xlink">
    <!-- Generator: Sketch 52.6 (67491) - http://www.bohemiancoding.com/sketch -->
    <title>A4 Copy</title>
    <desc>Created with Sketch.</desc>
    <defs>
        <circle id="path-1" cx="451.533031" cy="290" r="50"></circle>
        <filter x="-3.5%" y="-2.5%" width="107.0%" height="107.0%" filterUnits="objectBoundingBox" id="filter-2">
            <feMorphology radius="1.5" operator="dilate" in="SourceAlpha" result="shadowSpreadOuter1"></feMorphology>
            <feOffset dx="0" dy="1" in="shadowSpreadOuter1" result="shadowOffsetOuter1"></feOffset>
            <feGaussianBlur stdDeviation="0.5" in="shadowOffsetOuter1" result="shadowBlurOuter1"></feGaussianBlur>
            <feComposite in="shadowBlurOuter1" in2="SourceAlpha" operator="out" result="shadowBlurOuter1"></feComposite>
            <feColorMatrix values="0 0 0 0 0   0 0 0 0 0   0 0 0 0 0  0 0 0 0.5 0" type="matrix" in="shadowBlurOuter1"></feColorMatrix>
        </filter>
    </defs>
    <g id="Page-1" stroke="none" stroke-width="1" fill="none" fill-rule="evenodd">
        <g id="A4-Copy" transform="translate(-375.000000, -210.000000)">
            <g id="Oval-Copy">
                <use fill="black" fill-opacity="1" filter="url(#filter-2)" xlink:href="#path-1"></use>
                <use stroke="#FCF68D" stroke-width="3" fill="#245D7F" fill-rule="evenodd" xlink:href="#path-1"></use>
            </g>
            <g id="Group-2" transform="translate(452.299546, 293.056126) rotate(8.000000) translate(-452.299546, -293.056126) translate(438.799546, 268.641233)" fill="#FCF68D">
                <path d="M4.00593472,44.7909297 L22.9940653,44.7909297 L22.9940653,4.0388575 L4.00593472,4.0388575 L4.00593472,44.7909297 Z M0,48.8297872 L27,48.8297872 L27,0 L0,0 L0,48.8297872 Z M11.9176558,39.5808035 L14.7218101,39.5808035 L14.7218101,42.4080038 L11.9176558,42.4080038 L11.9176558,39.5808035 Z" id="Fill-3459"></path>
                <polygon id="Fill-3460" points="2.29787234 37.3404255 25.2765957 37.3404255 25.2765957 36.1914894 2.29787234 36.1914894"></polygon>
                <polygon id="Fill-3462" points="2.29787234 8.04255319 25.2765957 8.04255319 25.2765957 6.89361702 2.29787234 6.89361702"></polygon>
            </g>
        </g>
    </g>
</svg>