<?xml version="1.0" encoding="UTF-8"?>
<svg width="223px" height="185px" viewBox="0 0 223 185" version="1.1" xmlns="http://www.w3.org/2000/svg" xmlns:xlink="http://www.w3.org/1999/xlink">
    <!-- Generator: Sketch 52.6 (67491) - http://www.bohemiancoding.com/sketch -->
    <title>A4</title>
    <desc>Created with Sketch.</desc>
    <g id="Page-1" stroke="none" stroke-width="1" fill="none" fill-rule="evenodd">
        <g id="A4" transform="translate(-172.000000, -201.000000)" fill="#245D7F">
            <g id="Group-2" transform="translate(207.000000, 241.000000)">
                <path d="M74.320442,16.5697968 C56.3724297,16.5738828 41.7705184,31.1854309 41.7623473,49.1434158 C41.7705184,67.0850567 56.3683441,81.6843468 74.3122708,81.6843468 C92.2684543,81.6843468 106.878537,67.0809707 106.878537,49.1352438 C106.870366,31.1772589 92.2643687,16.5697968 74.320442,16.5697968 Z M74.3122708,89.8563536 C51.8701056,89.8563536 33.5993314,71.5960045 33.5911602,49.1434158 C33.5993314,26.6826552 51.8701056,8.40187606 74.320442,8.39779006 C96.7666928,8.39779006 115.041553,26.6744832 115.049724,49.1352438 C115.049724,71.5919184 96.774864,89.8563536 74.3122708,89.8563536 Z" id="Fill-1483"></path>
                <path d="M129.308406,31.9116022 C128.381596,31.9116022 127.471047,31.6201073 126.739355,30.9954752 L116.544453,22.5004798 C114.808718,21.0430051 114.544496,18.4195506 115.963165,16.6289388 C117.373703,14.838327 119.942754,14.5884742 121.682554,16.0459489 L128.714923,21.9174899 L144.775553,1.55448607 C146.182026,-0.236125722 148.738882,-0.527620665 150.490877,0.929854047 C152.238807,2.38732876 152.507093,5.01078324 151.09249,6.80139503 L132.466874,30.3708432 C131.788027,31.2453281 130.804309,31.7866758 129.731161,31.9116022 C129.588888,31.9116022 129.446614,31.9116022 129.308406,31.9116022" id="Fill-1145"></path>
                <path d="M22.7429986,84.8176796 C21.6860009,84.8176796 20.6290032,84.4050434 19.8238682,83.5797712 L1.21079914,65.0111452 C-0.403599713,63.4018642 -0.403599713,60.760993 1.21079914,59.1517121 C2.82519799,57.5424312 5.43466109,57.5424312 7.04905994,59.1517121 L25.662129,77.7616017 C27.2765279,79.3708826 27.2765279,81.9704902 25.662129,83.5797712 C24.8569941,84.4050434 23.7999963,84.8176796 22.7429986,84.8176796" id="Fill-1138"></path>
                <path d="M4.12992954,84.8176796 C3.07293183,84.8176796 2.01593411,84.4050434 1.21079914,83.5797712 C-0.403599713,81.9704902 -0.403599713,79.3708826 1.21079914,77.7616017 L19.8238682,59.1517121 C21.4341382,57.5424312 24.0477302,57.5424312 25.662129,59.1517121 C27.2765279,60.760993 27.2765279,63.4018642 25.662129,65.0111452 L7.04905994,83.5797712 C6.24392497,84.4050434 5.18692725,84.8176796 4.12992954,84.8176796" id="Fill-1139"></path>
                <path d="M121.749565,105.812155 C120.67021,105.812155 119.590855,105.403099 118.76869,104.576554 L95.2884963,81.1001406 C93.644166,79.4512673 93.644166,76.7860808 95.2884963,75.1372075 C96.9370429,73.4883342 99.6059174,73.4883342 101.254464,75.1372075 L124.730441,98.6136209 C126.378987,100.262494 126.378987,102.931898 124.730441,104.576554 C123.908276,105.403099 122.828921,105.812155 121.749565,105.812155" id="Fill-1485"></path>
            </g>
        </g>
    </g>
</svg>