<?xml version="1.0" encoding="UTF-8"?>
<svg width="223px" height="185px" viewBox="0 0 223 185" version="1.1" xmlns="http://www.w3.org/2000/svg" xmlns:xlink="http://www.w3.org/1999/xlink">
    <!-- Generator: Sketch 52.6 (67491) - http://www.bohemiancoding.com/sketch -->
    <title>A4</title>
    <desc>Created with Sketch.</desc>
    <defs>
        <circle id="path-1" cx="281" cy="294" r="75"></circle>
        <filter x="-6.7%" y="-5.3%" width="112.0%" height="112.0%" filterUnits="objectBoundingBox" id="filter-2">
            <feMorphology radius="1" operator="dilate" in="SourceAlpha" result="shadowSpreadOuter1"></feMorphology>
            <feOffset dx="-1" dy="1" in="shadowSpreadOuter1" result="shadowOffsetOuter1"></feOffset>
            <feGaussianBlur stdDeviation="2.5" in="shadowOffsetOuter1" result="shadowBlurOuter1"></feGaussianBlur>
            <feComposite in="shadowBlurOuter1" in2="SourceAlpha" operator="out" result="shadowBlurOuter1"></feComposite>
            <feColorMatrix values="0 0 0 0 0   0 0 0 0 0   0 0 0 0 0  0 0 0 0.5 0" type="matrix" in="shadowBlurOuter1"></feColorMatrix>
        </filter>
    </defs>
    <g id="Page-1" stroke="none" stroke-width="1" fill="none" fill-rule="evenodd">
        <g id="A4" transform="translate(-172.000000, -201.000000)">
            <g id="Oval-Copy">
                <use fill="black" fill-opacity="1" filter="url(#filter-2)" xlink:href="#path-1"></use>
                <use stroke="#FFFFFF" stroke-width="2" fill="#245D7F" fill-rule="evenodd" xlink:href="#path-1"></use>
            </g>
            <g id="medaly" transform="translate(247.000000, 256.000000)" fill="#FEF9A1">
                <path d="M32.6784662,6.38685077 C20.9592721,6.38685077 11.4114818,15.922419 11.4114818,27.6390967 C11.4114818,39.3557745 20.9592721,48.8881492 32.6784662,48.8881492 C44.3976603,48.8881492 53.9135182,39.3557745 53.9135182,27.6390967 C53.9135182,15.922419 44.3976603,6.38685077 32.6784662,6.38685077 Z M32.6784662,55.275 C17.4467071,55.275 5.025,42.8781227 5.025,27.6390967 C5.025,12.3968773 17.4467071,0 32.6784662,0 C47.9102253,0 60.3,12.3968773 60.3,27.6390967 C60.3,42.8781227 47.9102253,55.275 32.6784662,55.275 Z" id="Fill-2623"></path>
                <path d="M32.6625,14.916116 C25.6469689,14.916116 19.9388778,20.6218314 19.9388778,27.6390956 C19.9388778,34.6531686 25.6469689,40.358884 32.6625,40.358884 C39.6780311,40.358884 45.3861222,34.6531686 45.3861222,27.6390956 C45.3861222,20.6218314 39.6780311,14.916116 32.6625,14.916116 Z M32.6625,43.55 C23.8930862,43.55 16.75,36.4114735 16.75,27.6390956 C16.75,18.8667176 23.8930862,11.725 32.6625,11.725 C41.4319138,11.725 48.575,18.8667176 48.575,27.6390956 C48.575,36.4114735 41.4319138,43.55 32.6625,43.55 Z" id="Fill-2624"></path>
                <path d="M20.0380439,78.725 C18.9378722,78.725 17.9347744,78.1838462 17.3199725,77.2776536 L12.3044836,69.707904 L3.14717152,69.499768 C2.01464176,69.4773533 0.979185976,68.8625513 0.429100093,67.8923169 C-0.12098579,66.9188804 -0.153343783,65.7244994 0.3967421,64.7446588 L12.3044836,43.5243836 C13.1781494,41.9809744 15.151987,41.4174059 16.7051706,42.2787691 C18.2907123,43.1369302 18.8407982,45.0870053 17.9671324,46.6336166 L8.64803035,63.2204621 L14.1488892,63.3421417 C15.216703,63.3645564 16.2198007,63.9057102 16.8022446,64.7894881 L19.811538,69.3364612 L29.098282,52.7496156 C29.9719478,51.2062064 31.9457854,50.6426379 33.4989691,51.5040012 C35.0845107,52.3621623 35.6345966,54.3122374 34.7609308,55.8588486 L22.8531893,77.0791238 C22.3031034,78.0589645 21.3000057,78.6833728 20.1351179,78.7217979 C20.1027599,78.725 20.0704019,78.725 20.0380439,78.725" id="Fill-2625"></path>
                <path d="M48.6833486,76.725 C48.6537459,76.725 48.5945406,76.725 48.5649379,76.7221455 C47.5288445,76.6878913 46.5815591,76.1312614 46.0783137,75.2577807 L35.1845315,56.3409275 C34.4148621,54.962198 34.9181075,53.2238 36.3390356,52.4587907 C37.7599637,51.6909269 39.5657265,52.1933211 40.3649986,53.569196 L48.8905672,68.3555699 L51.6436155,64.3021624 C52.1764635,63.514317 53.0645436,63.0319044 54.0414316,63.0119228 L59.0738854,62.9034513 L50.5779194,48.1170775 C49.7786473,46.738348 50.2818927,44.99995 51.7028208,44.2349407 C53.1533516,43.4670769 54.9591144,43.9694711 55.7287838,45.345346 L66.622566,64.2621992 C67.1258113,65.13568 67.1258113,66.2004131 66.622566,67.0681848 C66.0897179,67.933102 65.1424325,68.4811684 64.1063391,68.50115 L55.7287838,68.6866933 L51.1403701,75.4347604 C50.607522,76.2425874 49.6602366,76.725 48.6833486,76.725" id="Fill-2626"></path>
            </g>
        </g>
    </g>
</svg>