<?xml version="1.0" encoding="UTF-8"?>
<svg width="223px" height="185px" viewBox="0 0 223 185" version="1.1" xmlns="http://www.w3.org/2000/svg" xmlns:xlink="http://www.w3.org/1999/xlink">
    <!-- Generator: Sketch 52.6 (67491) - http://www.bohemiancoding.com/sketch -->
    <title>A4</title>
    <desc>Created with Sketch.</desc>
    <g id="Page-1" stroke="none" stroke-width="1" fill="none" fill-rule="evenodd">
        <g id="A4" transform="translate(-172.000000, -201.000000)" fill="#245D7F" fill-rule="nonzero">
            <g id="artificial-intelligent" transform="translate(283.500000, 293.711538) scale(-1, 1) translate(-283.500000, -293.711538) translate(246.000000, 249.000000)">
                <path d="M74.705646,54.2350672 L66.6667598,38.1811856 L66.6667598,33.2884684 C66.6676803,18.6178199 57.0486663,5.67666085 42.9856408,1.42853702 C28.9226153,-2.81958681 13.7324485,2.62727646 5.58886119,14.8382084 C-2.55472611,27.0491404 -1.73100769,43.144101 7.61677944,54.4625064 C9.77459464,56.9328332 11.0093362,60.0729233 11.1112227,63.3492785 L11.1112227,80.4405049 C11.1118478,81.7963146 12.0940012,82.9529704 13.4334442,83.175323 L46.7667664,88.7226215 C46.9171704,88.7489839 47.0696191,88.7619785 47.2223218,88.7614525 C48.7564456,88.7614525 50.0000987,87.5196475 50.0000987,85.9878033 L50.0000987,75.3924634 L60.2167619,77.0566529 C61.8204896,77.3178976 63.4583708,76.8649682 64.6990221,75.8171567 C65.9396733,74.7693452 66.6587125,73.2317005 66.6667598,71.6092058 L66.6667598,58.2513113 L72.2223135,58.2513113 C73.1854468,58.251279 74.0798297,57.753082 74.5858048,56.9347785 C75.0917799,56.1164751 75.1371297,55.0948612 74.705646,54.2350672 Z M47.2223218,33.2884684 C48.7564456,33.2884684 50.0000987,34.5302734 50.0000987,36.0621176 C50.0000987,37.5939618 48.7564456,38.8357668 47.2223218,38.8357668 L44.444545,38.8357668 L44.444545,41.609416 C44.444545,43.1412602 43.2008919,44.3830652 41.6667681,44.3830652 L38.8889913,44.3830652 L38.8889913,47.1567144 C38.8889913,48.6885586 37.6453382,49.9303636 36.1112144,49.9303636 C34.5770906,49.9303636 33.3334375,48.6885586 33.3334375,47.1567144 L33.3334375,44.3830652 L27.7778838,44.3830652 L27.7778838,47.1567144 C27.7778838,48.6885586 26.5342308,49.9303636 25.000107,49.9303636 C23.4659832,49.9303636 22.2223301,48.6885586 22.2223301,47.1567144 L22.2223301,44.3830652 L19.4445533,44.3830652 C17.9104295,44.3830652 16.6667764,43.1412602 16.6667764,41.609416 L16.6667764,38.8357668 L13.8889996,38.8357668 C12.3548758,38.8357668 11.1112227,37.5939618 11.1112227,36.0621176 C11.1112227,34.5302734 12.3548758,33.2884684 13.8889996,33.2884684 L16.6667764,33.2884684 L16.6667764,27.74117 L13.8889996,27.74117 C12.3548758,27.74117 11.1112227,26.4993649 11.1112227,24.9675208 C11.1112227,23.4356766 12.3548758,22.1938716 13.8889996,22.1938716 L16.6667764,22.1938716 L16.6667764,19.4202224 C16.6667764,17.8883782 17.9104295,16.6465732 19.4445533,16.6465732 L22.2223301,16.6465732 L22.2223301,13.8729239 C22.2223301,12.3410798 23.4659832,11.0992747 25.000107,11.0992747 C26.5342308,11.0992747 27.7778838,12.3410798 27.7778838,13.8729239 L27.7778838,16.6465732 L33.3334375,16.6465732 L33.3334375,13.8729239 C33.3334375,12.3410798 34.5770906,11.0992747 36.1112144,11.0992747 C37.6453382,11.0992747 38.8889913,12.3410798 38.8889913,13.8729239 L38.8889913,16.6465732 L41.6667681,16.6465732 C43.2008919,16.6465732 44.444545,17.8883782 44.444545,19.4202224 L44.444545,22.1938716 L47.2223218,22.1938716 C48.7564456,22.1938716 50.0000987,23.4356766 50.0000987,24.9675208 C50.0000987,26.4993649 48.7564456,27.74117 47.2223218,27.74117 L44.444545,27.74117 L44.444545,33.2884684 L47.2223218,33.2884684 Z" id="Shape"></path>
            </g>
        </g>
    </g>
</svg>