<?xml version="1.0" encoding="UTF-8"?>
<svg width="223px" height="185px" viewBox="0 0 223 185" version="1.1" xmlns="http://www.w3.org/2000/svg" xmlns:xlink="http://www.w3.org/1999/xlink">
    <!-- Generator: Sketch 52.6 (67491) - http://www.bohemiancoding.com/sketch -->
    <title>A4</title>
    <desc>Created with Sketch.</desc>
    <g id="Page-1" stroke="none" stroke-width="1" fill="none" fill-rule="evenodd">
        <g id="A4" transform="translate(-172.000000, -201.000000)" fill="#245D7F">
            <path d="M234.310335,276.886176 L221.359868,265.857166 C220.095354,264.768386 219.489341,263.111547 219.761331,261.454709 C220.038093,259.845208 221.149911,258.472399 222.70073,257.857002 L264.143394,241.43063 C265.79442,240.767894 267.679262,241.099262 269.029668,242.23538 L283.583511,254.685339 C283.691199,254.77403 283.794112,254.867185 283.89211,254.964422 C284.087682,254.656711 284.320314,254.367938 284.588004,254.104576 L298.744117,240.362274 C300.084873,239.035431 302.065213,238.656333 303.803932,239.319754 L345.016791,255.857904 C346.509152,256.426551 347.594075,257.753394 347.911498,259.317174 C348.219446,260.880953 347.712517,262.539507 346.566004,263.629413 L333.397754,276.408454 L346.341655,287.465576 C347.606341,288.506712 348.207663,290.163064 347.935636,291.819417 C347.658837,293.428445 346.551641,294.800852 345.000611,295.416068 L333.184853,300.110348 C333.732596,300.880966 334.054054,301.819656 334.054054,302.829613 L334.054054,327.480462 C334.054054,329.514985 332.707654,331.36025 330.721474,331.975339 L281.000144,347.58912 C280.527471,347.731064 280.04525,347.778378 279.558254,347.778378 C279.472243,347.778378 279.386337,347.776289 279.300627,347.772081 C279.218222,347.77627 279.135545,347.778378 279.052675,347.778378 C278.444053,347.778378 277.83064,347.683198 277.236395,347.445248 L238.711149,331.740541 C236.909247,331.02669 235.735135,329.265859 235.735135,327.362258 L235.735135,304.423867 C235.735135,304.170121 235.755267,303.920848 235.794043,303.677564 L221.982679,298.135544 C220.490583,297.566897 219.405853,296.240054 219.088486,294.676275 C218.780593,293.112496 219.287432,291.453942 220.433741,290.364036 L234.310335,276.886176 Z M244.598823,277.562252 L280.866004,292.069977 C281.12133,292.175392 281.364727,292.30162 281.594393,292.446289 C282.038031,292.654347 282.44409,292.928174 282.79987,293.254852 C283.280654,292.080615 284.234031,291.122254 285.455385,290.636308 L321.845801,276.21367 L286.13248,261.923472 C285.500219,261.66248 284.941091,261.28241 284.482835,260.808486 C283.953839,261.618251 283.176604,262.266408 282.242649,262.638165 L244.598823,277.562252 Z M274.783784,307.293674 L268.256607,313.631175 C267.356612,314.531533 266.167672,315.005405 264.955048,315.005405 C264.362947,315.005405 263.766108,314.863244 263.197691,314.673695 L245.319722,307.499888 L245.319722,324.173727 L274.783784,336.16463 L274.783784,307.293674 Z M284.332724,298.825002 L284.332724,336.612159 L324.505114,324.026504 L324.505114,303.55872 L303.54755,311.884946 C302.974863,312.074243 302.37354,312.216216 301.77699,312.216216 C300.655476,312.216216 299.538735,311.837621 298.660614,311.080432 L284.332724,298.825002 Z M233.54215,263.774283 L239.955384,269.218182 L271.406,256.768222 L264.997538,251.276985 L233.54215,263.774283 Z M296.293503,296.551853 L302.693291,301.994154 L334.15772,289.547848 L327.738843,284.058222 L296.293503,296.551853 Z M296.422666,255.810517 L328.00861,268.462913 L334.726605,261.923472 L303.145398,249.271077 L296.422666,255.810517 Z M232.271037,292.069977 L263.856108,304.722372 L270.572909,298.182932 L238.978365,285.530536 L232.271037,292.069977 Z" id="Combined-Shape"></path>
        </g>
    </g>
</svg>