<?xml version="1.0" encoding="UTF-8"?>
<svg width="223px" height="185px" viewBox="0 0 223 185" version="1.1" xmlns="http://www.w3.org/2000/svg" xmlns:xlink="http://www.w3.org/1999/xlink">
    <!-- Generator: Sketch 52.6 (67491) - http://www.bohemiancoding.com/sketch -->
    <title>A4</title>
    <desc>Created with Sketch.</desc>
    <defs>
        <circle id="path-1" cx="281" cy="294" r="75"></circle>
        <filter x="-6.7%" y="-5.3%" width="112.0%" height="112.0%" filterUnits="objectBoundingBox" id="filter-2">
            <feMorphology radius="1" operator="dilate" in="SourceAlpha" result="shadowSpreadOuter1"></feMorphology>
            <feOffset dx="-1" dy="1" in="shadowSpreadOuter1" result="shadowOffsetOuter1"></feOffset>
            <feGaussianBlur stdDeviation="2.5" in="shadowOffsetOuter1" result="shadowBlurOuter1"></feGaussianBlur>
            <feComposite in="shadowBlurOuter1" in2="SourceAlpha" operator="out" result="shadowBlurOuter1"></feComposite>
            <feColorMatrix values="0 0 0 0 0   0 0 0 0 0   0 0 0 0 0  0 0 0 0.5 0" type="matrix" in="shadowBlurOuter1"></feColorMatrix>
        </filter>
    </defs>
    <g id="Page-1" stroke="none" stroke-width="1" fill="none" fill-rule="evenodd">
        <g id="A4" transform="translate(-172.000000, -201.000000)">
            <g id="Oval-Copy-2">
                <use fill="black" fill-opacity="1" filter="url(#filter-2)" xlink:href="#path-1"></use>
                <use stroke="#FFFFFF" stroke-width="2" fill="#245D7F" fill-rule="evenodd" xlink:href="#path-1"></use>
            </g>
            <path d="M284.209985,271.502183 L290.718564,273.687459 L293.576833,271.502183 L284.209985,271.502183 Z M280.790015,271.502183 L271.431774,271.502183 L274.287417,273.685451 L280.790015,271.502183 Z M276.689813,275.522191 L282.504304,279.967631 L288.309347,275.529413 L282.486227,273.575912 L276.689813,275.522191 Z M269.473716,275.301666 L271.210338,274.71859 L268.786303,272.863566 L269.473716,275.301666 Z M270.154582,277.716544 L271.168004,281.310924 L279.824813,281.310924 L273.611223,276.555897 L270.154582,277.716544 Z M294.831968,277.717578 L291.388781,276.562481 L285.183794,281.310924 L293.820724,281.310924 L294.831968,277.717578 Z M295.513103,275.29724 L296.191317,272.88728 L293.795645,274.720598 L295.513103,275.29724 Z M306.981125,279.147664 L299.1233,272.709569 L298.144955,276.180893 L306.981125,279.147664 Z M305.543241,281.310924 L297.463093,278.60025 L296.699126,281.310924 L305.543241,281.310924 Z M256.344459,279.709854 L266.864034,276.177874 L265.698537,272.042503 L256.344459,279.709854 Z M259.449781,281.310924 L268.310713,281.310924 L267.54467,278.592881 L259.449781,281.310924 Z M278.447053,317.276278 L269.068592,284 L253.405215,284 L278.447053,317.276278 Z M282.349096,320.967741 L282.842541,320.320711 L293.063961,284 L271.926179,284 L282.349096,320.967741 Z M287.382546,314.367643 L310.541902,284 L295.941247,284 L287.382546,314.367643 Z M281.755779,329 C280.901861,329 280.07549,328.614847 279.552121,327.927074 L246.552345,284.019651 C245.670882,282.836681 245.863702,281.186026 246.993077,280.250655 L263.630693,266.632751 C264.126516,266.220087 264.732522,266 265.366074,266 L298.613761,266 C299.247312,266 299.880864,266.220087 300.376687,266.632751 L316.986758,280.250655 C318.143678,281.186026 318.336498,282.864192 317.427489,284.047162 L283.959436,327.927074 C283.436068,328.614847 282.637242,329 281.755779,329 Z" id="Combined-Shape" fill="#FEF9A1"></path>
        </g>
    </g>
</svg>