<?xml version="1.0" encoding="UTF-8"?>
<svg width="194px" height="187px" viewBox="0 0 194 187" version="1.1" xmlns="http://www.w3.org/2000/svg" xmlns:xlink="http://www.w3.org/1999/xlink">
    <!-- Generator: Sketch 52.6 (67491) - http://www.bohemiancoding.com/sketch -->
    <title>A4 Copy</title>
    <desc>Created with Sketch.</desc>
    <defs>
        <circle id="path-1" cx="692.5" cy="291.5" r="77.5"></circle>
        <filter x="-2.3%" y="-1.6%" width="104.5%" height="104.5%" filterUnits="objectBoundingBox" id="filter-2">
            <feMorphology radius="1.5" operator="dilate" in="SourceAlpha" result="shadowSpreadOuter1"></feMorphology>
            <feOffset dx="0" dy="1" in="shadowSpreadOuter1" result="shadowOffsetOuter1"></feOffset>
            <feGaussianBlur stdDeviation="0.5" in="shadowOffsetOuter1" result="shadowBlurOuter1"></feGaussianBlur>
            <feComposite in="shadowBlurOuter1" in2="SourceAlpha" operator="out" result="shadowBlurOuter1"></feComposite>
            <feColorMatrix values="0 0 0 0 0   0 0 0 0 0   0 0 0 0 0  0 0 0 0.5 0" type="matrix" in="shadowBlurOuter1"></feColorMatrix>
        </filter>
    </defs>
    <g id="Page-1" stroke="none" stroke-width="1" fill="none" fill-rule="evenodd">
        <g id="A4-Copy" transform="translate(-595.000000, -197.000000)">
            <g id="Oval">
                <use fill="black" fill-opacity="1" filter="url(#filter-2)" xlink:href="#path-1"></use>
                <use stroke="#FCF68D" stroke-width="3" fill="#FCF68D" fill-rule="evenodd" xlink:href="#path-1"></use>
            </g>
            <g id="Group" transform="translate(653.000000, 269.000000)" fill="#245D7F">
                <path d="M12.6290323,38.0797697 L67.0645161,38.0797697 L67.0645161,5.43996711 L12.6290323,5.43996711 L12.6290323,38.0797697 Z M69.7862903,43.5197368 L9.90725806,43.5197368 C8.40211694,43.5197368 7.18548387,42.2957442 7.18548387,40.7997533 L7.18548387,2.71998355 C7.18548387,1.2239926 8.40211694,-7.63833441e-14 9.90725806,-7.63833441e-14 L69.7862903,-7.63833441e-14 C71.2887097,-7.63833441e-14 72.5080645,1.2239926 72.5080645,2.71998355 L72.5080645,40.7997533 C72.5080645,42.2957442 71.2887097,43.5197368 69.7862903,43.5197368 Z" id="Fill-1754"></path>
                <path d="M16.4681664,34.0141101 L63.225382,34.0141101 L63.225382,9.27657548 L16.4681664,9.27657548 L16.4681664,34.0141101 Z M64.6005942,36.7627251 L15.0929542,36.7627251 C14.3310866,36.7627251 13.7177419,36.1580298 13.7177419,35.3884176 L13.7177419,7.90226801 C13.7177419,7.13265582 14.3310866,6.52796053 15.0929542,6.52796053 L64.6005942,6.52796053 C65.3597114,6.52796053 65.9758065,7.13265582 65.9758065,7.90226801 L65.9758065,35.3884176 C65.9758065,36.1580298 65.3597114,36.7627251 64.6005942,36.7627251 Z" id="Fill-1755"></path>
                <path d="M77.8657734,49.5786528 L2.70048462,49.5786528 C1.20711662,49.5786528 -5.38236122e-13,48.3642342 -5.38236122e-13,46.8799448 C-5.38236122e-13,45.3686684 1.20711662,44.1812368 2.70048462,44.1812368 L77.8657734,44.1812368 C79.356441,44.1812368 80.5662581,45.3686684 80.5662581,46.8799448 C80.5662581,48.3642342 79.356441,49.5786528 77.8657734,49.5786528" id="Fill-1756"></path>
            </g>
        </g>
    </g>
</svg>