<?xml version="1.0" encoding="UTF-8"?>
<svg width="155px" height="159px" viewBox="0 0 155 159" version="1.1" xmlns="http://www.w3.org/2000/svg" xmlns:xlink="http://www.w3.org/1999/xlink">
    <!-- Generator: Sketch 52.6 (67491) - http://www.bohemiancoding.com/sketch -->
    <title>A4 Copy</title>
    <desc>Created with Sketch.</desc>
    <defs>
        <circle id="path-1" cx="692" cy="290" r="50"></circle>
        <filter x="-3.5%" y="-2.5%" width="107.0%" height="107.0%" filterUnits="objectBoundingBox" id="filter-2">
            <feMorphology radius="1.5" operator="dilate" in="SourceAlpha" result="shadowSpreadOuter1"></feMorphology>
            <feOffset dx="0" dy="1" in="shadowSpreadOuter1" result="shadowOffsetOuter1"></feOffset>
            <feGaussianBlur stdDeviation="0.5" in="shadowOffsetOuter1" result="shadowBlurOuter1"></feGaussianBlur>
            <feComposite in="shadowBlurOuter1" in2="SourceAlpha" operator="out" result="shadowBlurOuter1"></feComposite>
            <feColorMatrix values="0 0 0 0 0   0 0 0 0 0   0 0 0 0 0  0 0 0 0.5 0" type="matrix" in="shadowBlurOuter1"></feColorMatrix>
        </filter>
    </defs>
    <g id="Page-1" stroke="none" stroke-width="1" fill="none" fill-rule="evenodd">
        <g id="A4-Copy" transform="translate(-615.000000, -210.000000)">
            <g id="Oval">
                <use fill="black" fill-opacity="1" filter="url(#filter-2)" xlink:href="#path-1"></use>
                <use stroke="#FCF68D" stroke-width="3" fill="#245D7F" fill-rule="evenodd" xlink:href="#path-1"></use>
            </g>
            <g id="Group" transform="translate(657.000000, 268.000000)" fill="#FCF68D">
                <path d="M10.9139785,32.908443 L57.9569892,32.908443 L57.9569892,4.70120614 L10.9139785,4.70120614 L10.9139785,32.908443 Z M60.3091398,37.6096491 L8.56182796,37.6096491 C7.26108871,37.6096491 6.20967742,36.5518777 6.20967742,35.2590461 L6.20967742,2.35060307 C6.20967742,1.05777138 7.26108871,-7.63833441e-14 8.56182796,-7.63833441e-14 L60.3091398,-7.63833441e-14 C61.6075269,-7.63833441e-14 62.6612903,1.05777138 62.6612903,2.35060307 L62.6612903,35.2590461 C62.6612903,36.5518777 61.6075269,37.6096491 60.3091398,37.6096491 Z" id="Fill-1754"></path>
                <path d="M14.2317487,29.39491 L54.639219,29.39491 L54.639219,8.01679363 L14.2317487,8.01679363 L14.2317487,29.39491 Z M55.827674,31.7702562 L13.0432937,31.7702562 C12.3848896,31.7702562 11.8548387,31.2476801 11.8548387,30.5825831 L11.8548387,6.8291205 C11.8548387,6.16402355 12.3848896,5.64144737 13.0432937,5.64144737 L55.827674,5.64144737 C56.4837012,5.64144737 57.016129,6.16402355 57.016129,6.8291205 L57.016129,30.5825831 C57.016129,31.2476801 56.4837012,31.7702562 55.827674,31.7702562 Z" id="Fill-1755"></path>
                <path d="M67.2914092,42.8457493 L2.33375214,42.8457493 C1.04318721,42.8457493 -5.38236122e-13,41.7962518 -5.38236122e-13,40.5135326 C-5.38236122e-13,39.2074912 1.04318721,38.1813158 2.33375214,38.1813158 L67.2914092,38.1813158 C68.5796403,38.1813158 69.6251613,39.2074912 69.6251613,40.5135326 C69.6251613,41.7962518 68.5796403,42.8457493 67.2914092,42.8457493" id="Fill-1756"></path>
            </g>
        </g>
    </g>
</svg>