<?xml version="1.0" encoding="UTF-8"?>
<svg width="223px" height="185px" viewBox="0 0 223 185" version="1.1" xmlns="http://www.w3.org/2000/svg" xmlns:xlink="http://www.w3.org/1999/xlink">
    <!-- Generator: Sketch 52.6 (67491) - http://www.bohemiancoding.com/sketch -->
    <title>A4</title>
    <desc>Created with Sketch.</desc>
    <g id="Page-1" stroke="none" stroke-width="1" fill="none" fill-rule="evenodd">
        <g id="A4" transform="translate(-172.000000, -201.000000)" fill="#245D7F">
            <path d="M226.455453,319.314516 L338.014593,319.314516 L338.014593,252.187788 L226.455453,252.187788 L226.455453,319.314516 Z M343.59255,330.502304 L220.877496,330.502304 C217.792886,330.502304 215.299539,327.985052 215.299539,324.90841 L215.299539,246.593894 C215.299539,243.517252 217.792886,241 220.877496,241 L343.59255,241 C346.671582,241 349.170507,243.517252 349.170507,246.593894 L349.170507,324.90841 C349.170507,327.985052 346.671582,330.502304 343.59255,330.502304 Z M234.625273,310.404273 L329.079796,310.404273 L329.079796,260.333054 L234.625273,260.333054 L234.625273,310.404273 Z M331.85787,315.967742 L231.847199,315.967742 C230.308146,315.967742 229.069124,314.743779 229.069124,313.186008 L229.069124,257.55132 C229.069124,255.993548 230.308146,254.769585 231.847199,254.769585 L331.85787,254.769585 C333.391367,254.769585 334.635945,255.993548 334.635945,257.55132 L334.635945,313.186008 C334.635945,314.743779 333.391367,315.967742 331.85787,315.967742 Z M360.435879,346.56682 L205.564121,346.56682 C202.487162,346.56682 200,343.985023 200,340.829493 C200,337.61659 202.487162,335.092166 205.564121,335.092166 L360.435879,335.092166 C363.507274,335.092166 366,337.61659 366,340.829493 C366,343.985023 363.507274,346.56682 360.435879,346.56682 Z" id="Combined-Shape"></path>
        </g>
    </g>
</svg>