<svg width="155" height="159" xmlns="http://www.w3.org/2000/svg" xmlns:xlink="http://www.w3.org/1999/xlink"><defs><filter x="-3.5%" y="-2.5%" width="107%" height="107%" filterUnits="objectBoundingBox" id="a"><feMorphology radius="1.5" operator="dilate" in="SourceAlpha" result="shadowSpreadOuter1"/><feOffset dy="1" in="shadowSpreadOuter1" result="shadowOffsetOuter1"/><feGaussianBlur stdDeviation=".5" in="shadowOffsetOuter1" result="shadowBlurOuter1"/><feComposite in="shadowBlurOuter1" in2="SourceAlpha" operator="out" result="shadowBlurOuter1"/><feColorMatrix values="0 0 0 0 0 0 0 0 0 0 0 0 0 0 0 0 0 0 0.5 0" in="shadowBlurOuter1"/></filter><circle id="b" cx="199" cy="289" r="50"/></defs><g fill="none" fill-rule="evenodd"><g transform="translate(-122 -211)"><use fill="#000" filter="url(#a)" xlink:href="#b"/><use stroke="#FCF68D" stroke-width="3" fill="#245D7F" xlink:href="#b"/></g><g fill="#FCF68D"><path d="M71.44 84.202l-7.449 7.44c-1.362 1.364-1.557 3.068-.867 3.745.3.314.743.379 1.062.379.884 0 1.875-.472 2.671-1.261l7.449-7.442-2.866-2.86zm-7.254 15.102c-1.398 0-2.654-.502-3.574-1.417-2.194-2.2-1.822-6.045.884-8.745l8.687-8.694c.69-.69 1.823-.69 2.513 0l5.36 5.364c.337.331.514.78.514 1.251 0 .469-.177.918-.514 1.251l-8.686 8.69c-1.469 1.462-3.344 2.3-5.184 2.3zm30.218-36.265l-1.698 1.702a.74.74 0 000 1.063c.371.377.672.384 1.061 0l1.699-1.702-1.062-1.063zm-1.168 6.523a4.286 4.286 0 01-3.043-1.258c-1.663-1.677-1.663-4.398 0-6.067l2.955-2.95c.655-.662 1.84-.666 2.495 0l3.573 3.564a1.77 1.77 0 010 2.502l-2.954 2.953a4.242 4.242 0 01-3.026 1.256z"/><path d="M81.719 78.548a1.8 1.8 0 01-1.256-.519 1.77 1.77 0 010-2.501l9.73-9.726a1.783 1.783 0 012.513 0 1.77 1.77 0 010 2.502l-9.731 9.725a1.772 1.772 0 01-1.256.519"/><path d="M69.069 77.433c.46 0 .92.182 1.256.519l17.604 17.602c1.22 1.233 3.379 1.235 4.617-.002.62-.62.956-1.44.956-2.314 0-.874-.336-1.695-.956-2.314l-17.603-17.6a1.747 1.747 0 01-.46-1.685c.707-2.808-.071-5.699-2.106-7.732a8.025 8.025 0 00-5.555-2.367l3.096 3.095a1.79 1.79 0 01.46 1.709l-1.22 4.559a1.783 1.783 0 01-1.257 1.25l-4.565 1.22a1.73 1.73 0 01-1.698-.457l-3.096-3.09a8.103 8.103 0 002.37 5.546c2 2.005 4.972 2.81 7.714 2.116a1.93 1.93 0 01.443-.055zm21.16 22.618a6.796 6.796 0 01-4.813-1.996L68.485 81.127A11.686 11.686 0 0158.4 77.874a11.628 11.628 0 01-2.654-12.316c.195-.564.69-.982 1.274-1.11a1.782 1.782 0 011.628.479l4.76 4.764 2.582-.69.708-2.587-4.777-4.766a1.782 1.782 0 01-.478-1.626 1.762 1.762 0 011.115-1.282c1.31-.49 2.69-.74 4.087-.74 3.114 0 6.033 1.21 8.227 3.406 2.636 2.634 3.84 6.422 3.255 10.088L95.06 88.422a6.806 6.806 0 011.981 4.816c0 1.819-.707 3.53-1.981 4.816a6.805 6.805 0 01-4.83 1.997z"/></g></g></svg>