<svg width="194" height="187" xmlns="http://www.w3.org/2000/svg" xmlns:xlink="http://www.w3.org/1999/xlink"><defs><filter x="-2.3%" y="-1.6%" width="104.5%" height="104.5%" filterUnits="objectBoundingBox" id="a"><feMorphology radius="1.5" operator="dilate" in="SourceAlpha" result="shadowSpreadOuter1"/><feOffset dy="1" in="shadowSpreadOuter1" result="shadowOffsetOuter1"/><feGaussianBlur stdDeviation=".5" in="shadowOffsetOuter1" result="shadowBlurOuter1"/><feComposite in="shadowBlurOuter1" in2="SourceAlpha" operator="out" result="shadowBlurOuter1"/><feColorMatrix values="0 0 0 0 0 0 0 0 0 0 0 0 0 0 0 0 0 0 0.5 0" in="shadowBlurOuter1"/></filter><circle id="b" cx="199.5" cy="290.5" r="77.5"/></defs><g fill="none" fill-rule="evenodd"><g transform="translate(-105 -200)"><use fill="#000" filter="url(#a)" xlink:href="#b"/><use stroke="#FCF68D" stroke-width="3" fill="#FCF68D" xlink:href="#b"/></g><g fill="#245D7F"><path d="M87.397 99.749l-11.581 11.573c-2.119 2.122-2.421 4.772-1.348 5.826.467.487 1.155.589 1.65.589 1.376 0 2.916-.735 4.154-1.962l11.581-11.576-4.456-4.45zM76.118 123.24c-2.173 0-4.126-.781-5.557-2.204-3.41-3.424-2.833-9.404 1.376-13.604l13.507-13.525a2.772 2.772 0 013.906 0l8.335 8.345a2.71 2.71 0 01.798 1.946 2.72 2.72 0 01-.798 1.946l-13.507 13.519c-2.283 2.273-5.199 3.577-8.06 3.577zm46.653-56.083l-2.622 2.631a1.144 1.144 0 000 1.644c.574.582 1.038.593 1.64 0l2.621-2.631-1.639-1.644zM120.97 77.24a6.61 6.61 0 01-4.698-1.944c-2.568-2.593-2.568-6.8 0-9.38l4.561-4.562c1.01-1.022 2.84-1.028 3.851 0l5.518 5.512a2.74 2.74 0 010 3.867l-4.562 4.565a6.544 6.544 0 01-4.67 1.942z"/><path d="M103.617 90.724a2.798 2.798 0 01-1.951-.806 2.755 2.755 0 010-3.89l15.112-15.12c1.099-1.073 2.83-1.073 3.901 0a2.755 2.755 0 010 3.89l-15.112 15.12a2.75 2.75 0 01-1.95.806"/><path d="M83.764 89.055c.711 0 1.423.281 1.943.801l27.232 27.223c1.889 1.907 5.228 1.91 7.144-.003a5.02 5.02 0 001.478-3.579 5.02 5.02 0 00-1.478-3.579L92.85 82.698a2.702 2.702 0 01-.711-2.604c1.095-4.343-.11-8.814-3.257-11.958a12.415 12.415 0 00-8.594-3.66l4.79 4.785a2.77 2.77 0 01.711 2.643l-1.888 7.051c-.247.944-1.013 1.683-1.944 1.935l-7.06 1.885a2.676 2.676 0 01-2.628-.706l-4.79-4.78c.082 3.171 1.341 6.266 3.668 8.578 3.092 3.1 7.69 4.345 11.933 3.272a2.96 2.96 0 01.684-.084zm32.733 34.98a10.51 10.51 0 01-7.444-3.087L82.86 94.768c-5.693.908-11.523-.958-15.6-5.032-4.982-4.969-6.597-12.444-4.106-19.047.3-.873 1.067-1.518 1.97-1.715a2.757 2.757 0 012.518.738l7.363 7.369 3.996-1.067 1.094-4-7.39-7.372a2.755 2.755 0 01-.738-2.515 2.726 2.726 0 011.724-1.983A18.01 18.01 0 0180.014 59a17.87 17.87 0 0112.727 5.267c4.078 4.074 5.939 9.933 5.036 15.602l26.192 26.18a10.525 10.525 0 013.065 7.448 10.52 10.52 0 01-3.065 7.448 10.529 10.529 0 01-7.472 3.09z"/></g></g></svg>