<svg width="223" height="185" xmlns="http://www.w3.org/2000/svg" xmlns:xlink="http://www.w3.org/1999/xlink"><defs><filter x="-6.7%" y="-5.3%" width="112%" height="112%" filterUnits="objectBoundingBox" id="a"><feMorphology radius="1" operator="dilate" in="SourceAlpha" result="shadowSpreadOuter1"/><feOffset dx="-1" dy="1" in="shadowSpreadOuter1" result="shadowOffsetOuter1"/><feGaussianBlur stdDeviation="2.5" in="shadowOffsetOuter1" result="shadowBlurOuter1"/><feComposite in="shadowBlurOuter1" in2="SourceAlpha" operator="out" result="shadowBlurOuter1"/><feColorMatrix values="0 0 0 0 0 0 0 0 0 0 0 0 0 0 0 0 0 0 0.5 0" in="shadowBlurOuter1"/></filter><circle id="b" cx="283" cy="293" r="75"/></defs><g fill="none" fill-rule="evenodd"><g transform="translate(-172 -201)"><use fill="#000" filter="url(#a)" xlink:href="#b"/><use stroke="#FFF" stroke-width="2" fill="#245D7F" xlink:href="#b"/></g><path d="M98.24 61.012c-4.558 0-8.27 4.487-8.27 9.992 0 5.54 3.712 10.027 8.27 10.027 4.554 0 8.258-4.488 8.258-10.027 0-5.505-3.704-9.992-8.259-9.992zm0 27.03c-8.453 0-15.325-7.642-15.325-17.038C82.915 61.643 89.787 54 98.239 54c8.446 0 15.314 7.643 15.314 17.004 0 9.396-6.868 17.039-15.314 17.039zm-19.649 28.891h37.588l.748-11.034c.157-2.228-1.886-5.69-4.662-6.717-9.535-3.427-20.198-3.462-29.787 0-2.733 1.028-4.785 4.489-4.638 6.717l.751 11.034zm40.777 6.854h-43.97c-1.793 0-3.285-1.405-3.408-3.221l-.967-14.222c-.369-5.483 3.726-11.617 9.122-13.605 11.144-4.01 23.38-3.975 34.452 0 5.444 1.988 9.536 8.122 9.143 13.605l-.963 14.222c-.123 1.816-1.612 3.221-3.409 3.221zm27.422 0h-17.264c-1.859 0-3.367-1.558-3.367-3.462 0-1.938 1.508-3.462 3.367-3.462h14.122l.61-9.208c.117-1.766-1.556-4.57-3.678-5.366a35.968 35.968 0 00-11.801-2.216c-1.86-.034-3.344-1.592-3.31-3.53.033-1.905 1.491-3.428 3.427-3.393 4.789.103 9.492.969 13.984 2.63 4.815 1.8 8.435 7.34 8.098 12.36l-.828 12.393c-.121 1.835-1.59 3.254-3.36 3.254m-14.508-52.774c-2.93 0-5.313 3.06-5.313 6.834 0 3.74 2.382 6.8 5.313 6.8 2.927 0 5.302-3.06 5.302-6.8 0-3.774-2.375-6.834-5.302-6.834zm0 20.434c-6.572 0-11.92-6.086-11.92-13.6 0-7.514 5.348-13.634 11.92-13.634 6.567 0 11.91 6.12 11.91 13.634s-5.343 13.6-11.91 13.6z" fill="#FEF9A1"/></g></svg>