<svg width="223" height="185" xmlns="http://www.w3.org/2000/svg"><path d="M88.96 73.783h20.102V50.467a41.488 41.488 0 00-7.917 1.137c-5.405 4.415-9.764 12.345-12.184 22.179zm-.894 4.204c-.774 4.29-1.193 8.87-1.193 13.625 0 5.043.471 9.889 1.338 14.401h20.851V77.987H88.066zm1.09 32.23c2.684 10.355 7.535 18.506 13.48 22.514 2.09.429 4.236.7 6.426.802v-23.316H89.156zm43.883-36.434c-2.423-9.844-6.788-17.78-12.201-22.193a41.441 41.441 0 00-7.596-1.11v23.303h19.797zm.895 4.204h-20.692v28.026h20.547c.867-4.512 1.338-9.358 1.338-14.4 0-4.755-.419-9.336-1.193-13.626zm-1.09 32.23h-19.602v23.303a41.507 41.507 0 006.104-.777c5.953-4.004 10.81-12.16 13.498-22.526zM73.629 73.783h11.097c1.786-7.56 4.671-14.177 8.318-19.278a41.853 41.853 0 00-19.415 19.278zm-1.778 4.204A41.386 41.386 0 0069.421 92c0 4.915.857 9.633 2.43 14.013h12.153a79.157 79.157 0 01-1.299-14.4c0-4.731.405-9.305 1.16-13.626H71.85zm1.778 32.23a41.846 41.846 0 0020.297 19.689c-3.935-5.075-7.068-11.856-9.013-19.689H73.63zm74.75 0h-11.292c-1.948 7.845-5.088 14.636-9.032 19.713a41.79 41.79 0 0020.325-19.713zm1.775-4.204A41.458 41.458 0 00152.579 92a41.45 41.45 0 00-2.425-14.013h-12.019a79.414 79.414 0 011.16 13.625c0 5.015-.455 9.853-1.299 14.401h12.158zm-1.774-32.23a41.798 41.798 0 00-19.441-19.302c3.654 5.104 6.546 11.73 8.335 19.302h11.106zM111.02 142C83.442 142 61 119.57 61 92s22.442-50 50.021-50S161 64.43 161 92s-22.4 50-49.979 50z" fill="#245D7F" fill-rule="evenodd"/></svg>