<svg width="223" height="185" xmlns="http://www.w3.org/2000/svg" xmlns:xlink="http://www.w3.org/1999/xlink"><defs><filter x="-6.7%" y="-5.3%" width="112%" height="112%" filterUnits="objectBoundingBox" id="a"><feMorphology radius="1" operator="dilate" in="SourceAlpha" result="shadowSpreadOuter1"/><feOffset dx="-1" dy="1" in="shadowSpreadOuter1" result="shadowOffsetOuter1"/><feGaussianBlur stdDeviation="2.5" in="shadowOffsetOuter1" result="shadowBlurOuter1"/><feComposite in="shadowBlurOuter1" in2="SourceAlpha" operator="out" result="shadowBlurOuter1"/><feColorMatrix values="0 0 0 0 0 0 0 0 0 0 0 0 0 0 0 0 0 0 0.5 0" in="shadowBlurOuter1"/></filter><circle id="b" cx="281" cy="297" r="75"/></defs><g fill="none" fill-rule="evenodd"><g transform="translate(-172 -201)"><use fill="#000" filter="url(#a)" xlink:href="#b"/><use stroke="#FFF" stroke-width="2" fill="#245D7F" xlink:href="#b"/></g><g fill="#FEF9A1"><path d="M100.273 112.319h18.474c.17-2.872.803-6.831 2.84-9.568 8.813-11.411 9.22-22.192 9.22-22.3 0-11.802-9.567-21.413-21.324-21.413-11.756 0-21.32 9.611-21.32 21.427 0 .094.414 10.888 9.177 22.235 2.073 2.764 2.74 6.744 2.933 9.619zm21.8 6.7h-25.09a3.329 3.329 0 01-2.423-1.052 3.37 3.37 0 01-.903-2.5c.133-2.348-.187-6.79-1.614-8.696C81.617 93.27 81.497 80.593 81.497 80.465c0-15.51 12.553-28.128 27.986-28.128 15.434 0 27.99 12.617 27.99 28.128 0 .128-.123 12.805-10.583 26.346-1.443 1.94-1.63 6.65-1.49 8.62a3.377 3.377 0 01-.883 2.523 3.336 3.336 0 01-2.444 1.065zm.47 7.467h-26.12a3.34 3.34 0 01-3.333-3.35c0-1.852 1.49-3.35 3.333-3.35h26.12a3.339 3.339 0 013.334 3.35 3.34 3.34 0 01-3.334 3.35m-3.156 7.354H99.58a3.34 3.34 0 01-3.333-3.35 3.34 3.34 0 013.333-3.35h19.807a3.339 3.339 0 013.333 3.35c0 1.852-1.49 3.35-3.333 3.35"/><path d="M103.513 115.223l-4.22-34.999 3.31-.405 4.217 34.999-3.307.405m11.94 0l-3.306-.405 4.22-35 3.306.406-4.22 35"/><path d="M115.41 88.623c-1.02 0-1.653-.596-2.057-1.206-.403.61-1.033 1.206-2.053 1.206-1.013 0-1.643-.586-2.047-1.193-.4.607-1.03 1.193-2.043 1.193-1.007 0-1.633-.583-2.037-1.186-.403.603-1.026 1.186-2.036 1.186-1.597 0-2.237-1.454-2.547-2.15a4.558 4.558 0 00-.23-.477c.073.104.35.315.733.315v-3.35c1.007 0 1.637.583 2.04 1.19.404-.607 1.027-1.19 2.037-1.19s1.637.583 2.04 1.19c.403-.607 1.03-1.19 2.04-1.19 1.017 0 1.647.593 2.05 1.203.403-.61 1.037-1.203 2.053-1.203 1.024 0 1.654.596 2.057 1.21.407-.614 1.04-1.21 2.063-1.21v3.35c.377 0 .647-.207.72-.308-.053.074-.16.315-.233.476-.31.697-.957 2.144-2.55 2.144"/></g></g></svg>