<svg width="223" height="185" xmlns="http://www.w3.org/2000/svg"><g fill="#245D7F" fill-rule="evenodd"><path d="M109.32 56.57c-17.948.004-32.55 14.615-32.558 32.573.009 17.942 14.606 32.541 32.55 32.541 17.956 0 32.567-14.603 32.567-32.549-.009-17.958-14.615-32.565-32.559-32.565zm-.008 73.286c-22.442 0-40.713-18.26-40.72-40.713.007-22.46 18.278-40.741 40.728-40.745 22.447 0 40.722 18.276 40.73 40.737 0 22.457-18.275 40.721-40.738 40.721zm54.996-57.944c-.926 0-1.837-.292-2.569-.917L151.544 62.5c-1.735-1.457-2-4.08-.58-5.871a3.987 3.987 0 015.719-.583l7.032 5.871 16.06-20.363c1.407-1.79 3.964-2.082 5.716-.624 1.748 1.457 2.016 4.08.601 5.871l-18.625 23.57a4.04 4.04 0 01-2.736 1.54h-.423M57.743 124.818a4.065 4.065 0 01-2.92-1.238l-18.611-18.57a4.15 4.15 0 010-5.86 4.134 4.134 0 015.838 0l18.613 18.61a4.1 4.1 0 010 5.819 4.065 4.065 0 01-2.919 1.238"/><path d="M39.13 124.818a4.065 4.065 0 01-2.92-1.238 4.1 4.1 0 010-5.818l18.614-18.61a4.134 4.134 0 015.838 0 4.15 4.15 0 010 5.86L42.05 123.58a4.065 4.065 0 01-2.92 1.238m117.62 20.994c-1.08 0-2.16-.409-2.981-1.235l-23.48-23.477a4.22 4.22 0 010-5.963 4.216 4.216 0 015.965 0l23.476 23.477a4.213 4.213 0 010 5.963 4.187 4.187 0 01-2.98 1.235"/></g></svg>