<svg width="223" height="185" xmlns="http://www.w3.org/2000/svg" xmlns:xlink="http://www.w3.org/1999/xlink"><defs><filter x="-6.7%" y="-5.3%" width="112%" height="112%" filterUnits="objectBoundingBox" id="a"><feMorphology radius="1" operator="dilate" in="SourceAlpha" result="shadowSpreadOuter1"/><feOffset dx="-1" dy="1" in="shadowSpreadOuter1" result="shadowOffsetOuter1"/><feGaussianBlur stdDeviation="2.5" in="shadowOffsetOuter1" result="shadowBlurOuter1"/><feComposite in="shadowBlurOuter1" in2="SourceAlpha" operator="out" result="shadowBlurOuter1"/><feColorMatrix values="0 0 0 0 0 0 0 0 0 0 0 0 0 0 0 0 0 0 0.5 0" in="shadowBlurOuter1"/></filter><circle id="b" cx="281" cy="294" r="75"/></defs><g fill="none" fill-rule="evenodd"><g transform="translate(-172 -201)"><use fill="#000" filter="url(#a)" xlink:href="#b"/><use stroke="#FFF" stroke-width="2" fill="#245D7F" xlink:href="#b"/></g><g fill="#FEF9A1"><path d="M107.678 61.387c-11.719 0-21.267 9.535-21.267 21.252 0 11.717 9.548 21.25 21.267 21.25 11.72 0 21.236-9.533 21.236-21.25s-9.516-21.252-21.236-21.252zm0 48.888c-15.231 0-27.653-12.397-27.653-27.636C80.025 67.397 92.447 55 107.678 55 122.91 55 135.3 67.397 135.3 82.64c0 15.238-12.39 27.635-27.622 27.635z"/><path d="M107.662 69.916c-7.015 0-12.723 5.706-12.723 12.723 0 7.014 5.708 12.72 12.724 12.72 7.015 0 12.723-5.706 12.723-12.72 0-7.017-5.708-12.723-12.724-12.723zm0 28.634c-8.769 0-15.912-7.139-15.912-15.91 0-8.773 7.143-15.915 15.913-15.915 8.769 0 15.912 7.142 15.912 15.914 0 8.772-7.143 15.911-15.913 15.911zm-12.624 35.175c-1.1 0-2.103-.541-2.718-1.447l-5.016-7.57-9.157-.208a3.197 3.197 0 01-2.718-1.608c-.55-.973-.582-2.168-.032-3.147l11.907-21.22a3.259 3.259 0 014.401-1.246 3.162 3.162 0 011.262 4.355l-9.319 16.586 5.5.122a3.265 3.265 0 012.654 1.447l3.01 4.547 9.286-16.586a3.259 3.259 0 014.401-1.246 3.162 3.162 0 011.262 4.355l-11.908 21.22a3.202 3.202 0 01-2.718 1.643c-.032.003-.065.003-.097.003"/><path d="M123.683 131.725c-.03 0-.088 0-.118-.003-1.036-.034-1.983-.59-2.487-1.464l-10.893-18.917a2.83 2.83 0 011.154-3.882c1.421-.768 3.227-.266 4.026 1.11l8.526 14.787 2.753-4.054a2.954 2.954 0 012.397-1.29l5.033-.109-8.496-14.786c-.8-1.379-.296-3.117 1.125-3.882 1.45-.768 3.256-.266 4.026 1.11l10.894 18.917a2.796 2.796 0 010 2.806 3.027 3.027 0 01-2.517 1.433l-8.377.186-4.589 6.748c-.532.808-1.48 1.29-2.457 1.29"/></g></g></svg>