<svg width="223" height="185" xmlns="http://www.w3.org/2000/svg"><path d="M74.294 102.235l8.04-16.054v-4.893c-.002-14.67 9.617-27.611 23.68-31.86 14.063-4.248 29.254 1.2 37.397 13.41a33.244 33.244 0 01-2.028 39.625 14.178 14.178 0 00-3.494 8.886v17.092a2.775 2.775 0 01-2.322 2.734l-33.334 5.548A2.776 2.776 0 0199 133.988v-10.596l-10.217 1.665a5.561 5.561 0 01-4.482-1.24 5.544 5.544 0 01-1.968-4.208v-13.358h-5.555a2.779 2.779 0 01-2.364-1.316 2.77 2.77 0 01-.12-2.7zm27.484-20.947A2.776 2.776 0 0099 84.062a2.776 2.776 0 002.778 2.774h2.777v2.773a2.776 2.776 0 002.778 2.774h2.778v2.774a2.776 2.776 0 002.778 2.773 2.776 2.776 0 002.778-2.773v-2.774h5.555v2.774A2.776 2.776 0 00124 97.93a2.776 2.776 0 002.778-2.773v-2.774h2.777a2.776 2.776 0 002.778-2.774v-2.773h2.778a2.776 2.776 0 002.778-2.774 2.776 2.776 0 00-2.778-2.774h-2.778v-5.547h2.778a2.776 2.776 0 002.778-2.773 2.776 2.776 0 00-2.778-2.774h-2.778V67.42a2.776 2.776 0 00-2.778-2.773h-2.777v-2.774A2.776 2.776 0 00124 59.099a2.776 2.776 0 00-2.778 2.774v2.774h-5.555v-2.774a2.776 2.776 0 00-2.778-2.774 2.776 2.776 0 00-2.778 2.774v2.774h-2.778a2.776 2.776 0 00-2.778 2.773v2.774h-2.777A2.776 2.776 0 0099 72.968a2.776 2.776 0 002.778 2.773h2.777v5.547h-2.777z" fill="#245D7F"/></svg>