<svg width="223" height="185" xmlns="http://www.w3.org/2000/svg"><path d="M62.31 75.886L49.36 64.857a4.771 4.771 0 01-1.599-4.402 4.756 4.756 0 012.94-3.598l41.442-16.426c1.651-.663 3.536-.332 4.887.804l14.554 12.45c.107.089.21.182.308.28.196-.308.428-.597.696-.86l14.156-13.743c1.34-1.327 3.321-1.706 5.06-1.042l41.213 16.538c1.492.569 2.577 1.895 2.894 3.46.308 1.563-.198 3.222-1.345 4.311l-13.168 12.78 12.944 11.057c1.264 1.04 1.866 2.697 1.594 4.353A4.75 4.75 0 01173 94.416l-11.816 4.694c.548.771.87 1.71.87 2.72v24.65c0 2.035-1.347 3.88-3.334 4.495L109 146.589a4.97 4.97 0 01-1.443.19c-.086 0-.172-.003-.257-.007a4.884 4.884 0 01-.248.006 4.847 4.847 0 01-1.817-.333L66.71 130.741a4.732 4.732 0 01-2.976-4.379v-22.938c0-.254.02-.503.059-.746l-13.811-5.542c-1.492-.57-2.577-1.896-2.895-3.46-.307-1.564.2-3.222 1.346-4.312L62.31 75.886zm10.289.676l36.267 14.508c.255.105.499.232.728.376.444.208.85.482 1.206.809a4.779 4.779 0 012.655-2.619l36.39-14.422-35.713-14.29a4.877 4.877 0 01-1.65-1.116 4.795 4.795 0 01-2.24 1.83L72.6 76.562zm30.185 29.732l-6.527 6.337c-.9.9-2.09 1.374-3.302 1.374-.592 0-1.189-.142-1.757-.331L73.32 106.5v16.674l29.464 11.99v-28.87zm9.549-8.469v37.787l40.172-12.585v-20.468l-20.957 8.326c-.573.19-1.174.331-1.771.331a4.763 4.763 0 01-3.116-1.136l-14.328-12.255zm-50.79-35.05l6.412 5.443 31.451-12.45-6.408-5.491-31.456 12.497zm62.75 32.777l6.4 5.442 31.465-12.446-6.42-5.49-31.444 12.494zm.13-40.741l31.586 12.652 6.718-6.54-31.582-12.652-6.722 6.54zM60.27 91.07l31.585 12.652 6.717-6.54-31.595-12.651-6.707 6.539z" fill="#245D7F" fill-rule="evenodd"/></svg>