<svg width="223" height="185" xmlns="http://www.w3.org/2000/svg" xmlns:xlink="http://www.w3.org/1999/xlink"><defs><filter x="-6.7%" y="-5.3%" width="112%" height="112%" filterUnits="objectBoundingBox" id="a"><feMorphology radius="1" operator="dilate" in="SourceAlpha" result="shadowSpreadOuter1"/><feOffset dx="-1" dy="1" in="shadowSpreadOuter1" result="shadowOffsetOuter1"/><feGaussianBlur stdDeviation="2.5" in="shadowOffsetOuter1" result="shadowBlurOuter1"/><feComposite in="shadowBlurOuter1" in2="SourceAlpha" operator="out" result="shadowBlurOuter1"/><feColorMatrix values="0 0 0 0 0 0 0 0 0 0 0 0 0 0 0 0 0 0 0.5 0" in="shadowBlurOuter1"/></filter><circle id="b" cx="281" cy="294" r="75"/></defs><g fill="none" fill-rule="evenodd"><g transform="translate(-172 -201)"><use fill="#000" filter="url(#a)" xlink:href="#b"/><use stroke="#FFF" stroke-width="2" fill="#245D7F" xlink:href="#b"/></g><path d="M112.21 70.502l6.509 2.185 2.858-2.185h-9.367zm-3.42 0h-9.358l2.855 2.183 6.503-2.183zm-4.1 4.02l5.814 4.446 5.805-4.439-5.823-1.953-5.796 1.946zm-7.216-.22l1.736-.583-2.424-1.855.688 2.438zm.68 2.415l1.014 3.594h8.657l-6.214-4.755-3.456 1.16zm24.678 0l-3.443-1.155-6.205 4.749h8.637l1.011-3.593zm.681-2.42l.678-2.41-2.395 1.834 1.717.576zm11.468 3.85l-7.858-6.437-.978 3.47 8.836 2.968zm-1.438 2.164l-8.08-2.71-.764 2.71h8.844zM84.344 78.71l10.52-3.532-1.165-4.135-9.355 7.667zm3.106 1.6h8.86l-.765-2.717-8.095 2.718zm18.997 35.966L97.07 83H81.405l25.042 33.276zm3.902 3.692l.494-.647L121.064 83H99.926l10.423 36.968zm5.034-6.6L138.542 83h-14.6l-8.56 30.368zM109.756 128c-.854 0-1.68-.385-2.204-1.073l-33-43.907a2.749 2.749 0 01.441-3.77l16.638-13.617A2.697 2.697 0 0193.366 65h33.248c.633 0 1.267.22 1.763.633l16.61 13.618a2.73 2.73 0 01.44 3.796l-33.468 43.88a2.729 2.729 0 01-2.203 1.073z" fill="#FEF9A1"/></g></svg>