<svg width="155" height="159" xmlns="http://www.w3.org/2000/svg" xmlns:xlink="http://www.w3.org/1999/xlink"><defs><filter x="-3.5%" y="-2.5%" width="107%" height="107%" filterUnits="objectBoundingBox" id="a"><feMorphology radius="1.5" operator="dilate" in="SourceAlpha" result="shadowSpreadOuter1"/><feOffset dy="1" in="shadowSpreadOuter1" result="shadowOffsetOuter1"/><feGaussianBlur stdDeviation=".5" in="shadowOffsetOuter1" result="shadowBlurOuter1"/><feComposite in="shadowBlurOuter1" in2="SourceAlpha" operator="out" result="shadowBlurOuter1"/><feColorMatrix values="0 0 0 0 0 0 0 0 0 0 0 0 0 0 0 0 0 0 0.5 0" in="shadowBlurOuter1"/></filter><circle id="b" cx="692" cy="290" r="50"/></defs><g fill="none" fill-rule="evenodd"><g transform="translate(-615 -210)"><use fill="#000" filter="url(#a)" xlink:href="#b"/><use stroke="#FCF68D" stroke-width="3" fill="#245D7F" xlink:href="#b"/></g><g fill="#FCF68D"><path d="M52.914 90.908h47.043V62.701H52.914v28.207zm49.395 4.702H50.562a2.354 2.354 0 01-2.352-2.351V60.351A2.354 2.354 0 0150.562 58h51.747a2.355 2.355 0 012.352 2.35v32.91a2.355 2.355 0 01-2.352 2.35z"/><path d="M56.232 87.395h40.407V66.017H56.232v21.378zm41.596 2.375H55.043a1.181 1.181 0 01-1.188-1.187V64.829c0-.665.53-1.188 1.188-1.188h42.785c.656 0 1.188.523 1.188 1.188v23.754c0 .665-.532 1.187-1.188 1.187zm11.463 11.076H44.334A2.335 2.335 0 0142 98.514a2.32 2.32 0 012.334-2.333h64.957a2.322 2.322 0 012.334 2.333 2.337 2.337 0 01-2.334 2.332"/></g></g></svg>