<svg width="194" height="187" xmlns="http://www.w3.org/2000/svg" xmlns:xlink="http://www.w3.org/1999/xlink"><defs><filter x="-2.3%" y="-1.6%" width="104.5%" height="104.5%" filterUnits="objectBoundingBox" id="a"><feMorphology radius="1.5" operator="dilate" in="SourceAlpha" result="shadowSpreadOuter1"/><feOffset dy="1" in="shadowSpreadOuter1" result="shadowOffsetOuter1"/><feGaussianBlur stdDeviation=".5" in="shadowOffsetOuter1" result="shadowBlurOuter1"/><feComposite in="shadowBlurOuter1" in2="SourceAlpha" operator="out" result="shadowBlurOuter1"/><feColorMatrix values="0 0 0 0 0 0 0 0 0 0 0 0 0 0 0 0 0 0 0.5 0" in="shadowBlurOuter1"/></filter><circle id="b" cx="692.5" cy="291.5" r="77.5"/></defs><g fill="none" fill-rule="evenodd"><g transform="translate(-595 -197)"><use fill="#000" filter="url(#a)" xlink:href="#b"/><use stroke="#FCF68D" stroke-width="3" fill="#FCF68D" xlink:href="#b"/></g><g fill="#245D7F"><path d="M70.629 110.08h54.436V77.44H70.629v32.64zm57.157 5.44H67.907a2.724 2.724 0 01-2.722-2.72V74.72A2.724 2.724 0 0167.907 72h59.88a2.725 2.725 0 012.721 2.72v38.08c0 1.496-1.22 2.72-2.722 2.72z"/><path d="M74.468 106.014h46.757V81.277H74.468v24.737zm48.133 2.749H73.093a1.367 1.367 0 01-1.375-1.375V79.902c0-.77.613-1.374 1.375-1.374h49.508c.759 0 1.375.605 1.375 1.374v27.486c0 .77-.616 1.375-1.375 1.375zm13.265 12.816H60.7a2.702 2.702 0 01-2.7-2.7 2.685 2.685 0 012.7-2.698h75.166c1.49 0 2.7 1.188 2.7 2.699a2.704 2.704 0 01-2.7 2.699"/></g></g></svg>