<svg width="223" height="185" xmlns="http://www.w3.org/2000/svg"><path d="M54.455 118.315h111.56V51.188H54.455v67.127zm117.138 11.187H48.877c-3.084 0-5.577-2.517-5.577-5.594V45.594c0-3.077 2.493-5.594 5.577-5.594h122.716c3.079 0 5.578 2.517 5.578 5.594v78.314c0 3.077-2.5 5.594-5.578 5.594zM62.625 109.404h94.455v-50.07H62.625v50.07zm97.233 5.564H59.848a2.763 2.763 0 01-2.779-2.782V56.551a2.763 2.763 0 012.778-2.781h100.01a2.767 2.767 0 012.779 2.781v55.635a2.767 2.767 0 01-2.778 2.782zm28.578 30.599H33.564c-3.077 0-5.564-2.582-5.564-5.738 0-3.212 2.487-5.737 5.564-5.737h154.872c3.071 0 5.564 2.525 5.564 5.737 0 3.156-2.493 5.738-5.564 5.738z" fill="#245D7F" fill-rule="evenodd"/></svg>